# Blender v3.4.1 OBJ File: 'SpaceBits_export_2.blend'
# www.blender.org
mtllib dome.mtl
o dome_Sphere.017
v 0.000000 0.760360 -0.671751
v 0.000000 0.494923 -0.877686
v 0.139124 0.937720 -0.335876
v 0.257068 0.760360 -0.620617
v 0.335876 0.494923 -0.810876
v 0.363549 0.181818 -0.877686
v 0.257068 0.937720 -0.257068
v 0.475000 0.760360 -0.475000
v 0.620618 0.494923 -0.620617
v 0.671752 0.181818 -0.671751
v 0.335876 0.937720 -0.139124
v 0.620618 0.760360 -0.257068
v 0.810876 0.494923 -0.335876
v 0.877686 0.181818 -0.363549
v 0.363549 0.937720 0.000000
v 0.671752 0.760360 0.000000
v 0.877686 0.494923 0.000000
v 0.950000 0.181818 0.000000
v 0.335876 0.937720 0.139124
v 0.620618 0.760360 0.257068
v 0.810876 0.494923 0.335876
v 0.877685 0.181818 0.363550
v 0.257068 0.937720 0.257068
v 0.475000 0.760360 0.475000
v 0.620617 0.494923 0.620618
v 0.671751 0.181818 0.671752
v 0.139124 0.937720 0.335876
v 0.257068 0.760360 0.620618
v 0.335876 0.494923 0.810876
v 0.363549 0.181818 0.877686
v -0.000000 1.000000 0.000000
v -0.000000 0.937720 0.363549
v -0.000000 0.760360 0.671752
v -0.000000 0.494923 0.877686
v -0.000000 0.181818 0.950000
v -0.139124 0.937720 0.335876
v -0.257068 0.760360 0.620618
v -0.335876 0.494923 0.810876
v -0.363550 0.181818 0.877686
v -0.257068 0.937720 0.257068
v -0.475000 0.760360 0.475000
v -0.620618 0.494923 0.620617
v -0.671752 0.181818 0.671751
v -0.335876 0.937720 0.139124
v -0.620617 0.760360 0.257068
v -0.810876 0.494923 0.335875
v -0.877686 0.181818 0.363549
v -0.363549 0.937720 -0.000000
v -0.671751 0.760360 -0.000000
v -0.877685 0.494923 -0.000000
v -0.950000 0.181818 -0.000000
v -0.335876 0.937720 -0.139124
v -0.620617 0.760360 -0.257068
v -0.810875 0.494923 -0.335876
v -0.877685 0.181818 -0.363550
v -0.257068 0.937720 -0.257068
v -0.475000 0.760360 -0.475000
v -0.620617 0.494923 -0.620617
v -0.671751 0.181818 -0.671752
v -0.139124 0.937720 -0.335876
v -0.257068 0.760360 -0.620617
v -0.335875 0.494923 -0.810876
v -0.363549 0.181818 -0.877686
v 0.000000 0.937720 -0.363549
v 0.000001 0.181818 -0.950000
v 0.381727 -0.000000 -0.921570
v 0.921570 -0.000000 -0.381727
v 0.921570 -0.000000 0.381727
v 0.381726 -0.000000 0.921570
v -0.381727 -0.000000 0.921570
v -0.921570 -0.000000 0.381726
v -0.921569 -0.000000 -0.381727
v -0.381726 -0.000000 -0.921570
vt 0.750000 0.625000
vt 0.750000 0.750000
vt 0.687500 0.750000
vt 0.687500 0.625000
vt 0.750000 0.875000
vt 0.718750 1.000000
vt 0.687500 0.875000
vt 0.750000 0.500000
vt 0.687500 0.500000
vt 0.625000 0.625000
vt 0.625000 0.500000
vt 0.625000 0.875000
vt 0.625000 0.750000
vt 0.656250 1.000000
vt 0.562500 0.625000
vt 0.562500 0.500000
vt 0.562500 0.875000
vt 0.562500 0.750000
vt 0.593750 1.000000
vt 0.500000 0.750000
vt 0.500000 0.625000
vt 0.531250 1.000000
vt 0.500000 0.875000
vt 0.500000 0.500000
vt 0.437500 0.750000
vt 0.437500 0.625000
vt 0.468750 1.000000
vt 0.437500 0.875000
vt 0.437500 0.500000
vt 0.375000 0.625000
vt 0.375000 0.500000
vt 0.375000 0.875000
vt 0.375000 0.750000
vt 0.406250 1.000000
vt 0.312500 0.875000
vt 0.312500 0.750000
vt 0.312500 0.625000
vt 0.343750 1.000000
vt 0.312500 0.500000
vt 0.250000 0.750000
vt 0.250000 0.625000
vt 0.281250 1.000000
vt 0.250000 0.875000
vt 0.250000 0.500000
vt 0.218750 1.000000
vt 0.187500 0.875000
vt 0.187500 0.625000
vt 0.187500 0.500000
vt 0.187500 0.750000
vt 0.125000 0.625000
vt 0.125000 0.500000
vt 0.125000 0.875000
vt 0.125000 0.750000
vt 0.156250 1.000000
vt 0.062500 0.750000
vt 0.062500 0.625000
vt 0.093750 1.000000
vt 0.062500 0.875000
vt 0.062500 0.500000
vt 0.000000 0.750000
vt 0.000000 0.625000
vt 0.031250 1.000000
vt 0.000000 0.875000
vt 0.000000 0.500000
vt 1.000000 0.500000
vt 1.000000 0.625000
vt 0.937500 0.625000
vt 0.937500 0.500000
vt 1.000000 0.750000
vt 1.000000 0.875000
vt 0.937500 0.875000
vt 0.937500 0.750000
vt 0.968750 1.000000
vt 0.875000 0.625000
vt 0.875000 0.500000
vt 0.875000 0.875000
vt 0.875000 0.750000
vt 0.906250 1.000000
vt 0.812500 0.750000
vt 0.812500 0.625000
vt 0.843750 1.000000
vt 0.812500 0.875000
vt 0.812500 0.500000
vt 0.781250 1.000000
vt 0.187500 0.500000
vt 0.062500 0.500000
vt 0.687500 0.500000
vt 0.312500 0.500000
vt 0.437500 0.500000
vt 0.562500 0.500000
vt 0.937500 0.500000
vt 0.812500 0.500000
vn -0.0000 0.4190 -0.9080
vn -0.0000 0.7423 -0.6701
vn 0.2564 0.7423 -0.6191
vn 0.3475 0.4190 -0.8389
vn 0.0000 0.9337 -0.3582
vn -0.0000 1.0000 0.0000
vn 0.1371 0.9337 -0.3309
vn 0.0000 0.0921 -0.9957
vn 0.3716 0.2393 -0.8970
vn 0.6420 0.4190 -0.6420
vn 0.7041 0.0921 -0.7041
vn 0.2533 0.9337 -0.2533
vn 0.4738 0.7423 -0.4738
vn 0.8389 0.4190 -0.3475
vn 0.8970 0.2393 -0.3716
vn 0.3309 0.9337 -0.1371
vn 0.6191 0.7423 -0.2564
vn 0.6701 0.7423 0.0000
vn 0.9080 0.4190 0.0000
vn 0.3582 0.9337 -0.0000
vn 0.9957 0.0921 0.0000
vn 0.6191 0.7423 0.2564
vn 0.8389 0.4190 0.3475
vn 0.3309 0.9337 0.1371
vn 0.8970 0.2393 0.3716
vn 0.6420 0.4190 0.6420
vn 0.7041 0.0921 0.7041
vn 0.2533 0.9337 0.2533
vn 0.4738 0.7423 0.4738
vn 0.1371 0.9337 0.3309
vn 0.2564 0.7423 0.6191
vn 0.3475 0.4190 0.8389
vn 0.3716 0.2393 0.8970
vn -0.0000 0.7423 0.6701
vn -0.0000 0.4190 0.9080
vn -0.0000 0.9337 0.3582
vn -0.0000 0.0921 0.9957
vn -0.1371 0.9337 0.3309
vn -0.3475 0.4190 0.8389
vn -0.3716 0.2393 0.8970
vn -0.2564 0.7423 0.6191
vn -0.6420 0.4190 0.6420
vn -0.7041 0.0921 0.7041
vn -0.2533 0.9337 0.2533
vn -0.4738 0.7423 0.4738
vn -0.6191 0.7423 0.2564
vn -0.8389 0.4190 0.3475
vn -0.3309 0.9337 0.1371
vn -0.8970 0.2393 0.3716
vn -0.6701 0.7423 -0.0000
vn -0.9080 0.4190 -0.0000
vn -0.3582 0.9337 -0.0000
vn -0.9957 0.0921 -0.0000
vn -0.8389 0.4190 -0.3475
vn -0.8970 0.2393 -0.3716
vn -0.3309 0.9337 -0.1371
vn -0.6191 0.7423 -0.2564
vn -0.6420 0.4190 -0.6420
vn -0.7041 0.0921 -0.7041
vn -0.2533 0.9337 -0.2533
vn -0.4738 0.7423 -0.4738
vn -0.2564 0.7423 -0.6191
vn -0.3475 0.4190 -0.8389
vn -0.1371 0.9337 -0.3309
vn -0.3716 0.2393 -0.8970
vn -0.3791 0.1356 0.9153
vn -0.9153 0.1356 0.3791
vn 0.3791 0.1356 -0.9153
vn 0.3791 0.1356 0.9153
vn 0.9153 0.1356 0.3791
vn 0.9153 0.1356 -0.3791
vn -0.9153 0.1356 -0.3791
vn -0.3791 0.1356 -0.9153
usemtl Glass
s 1
f 2/1/1 1/2/2 4/3/3 5/4/4
f 64/5/5 31/6/6 3/7/7
f 65/8/8 2/1/1 5/4/4 6/9/9
f 1/2/2 64/5/5 3/7/7 4/3/3
f 6/9/9 5/4/4 9/10/10 10/11/11
f 4/3/3 3/7/7 7/12/12 8/13/13
f 5/4/4 4/3/3 8/13/13 9/10/10
f 3/7/7 31/14/6 7/12/12
f 10/11/11 9/10/10 13/15/14 14/16/15
f 8/13/13 7/12/12 11/17/16 12/18/17
f 9/10/10 8/13/13 12/18/17 13/15/14
f 7/12/12 31/19/6 11/17/16
f 13/15/14 12/18/17 16/20/18 17/21/19
f 11/17/16 31/22/6 15/23/20
f 14/16/15 13/15/14 17/21/19 18/24/21
f 12/18/17 11/17/16 15/23/20 16/20/18
f 17/21/19 16/20/18 20/25/22 21/26/23
f 15/23/20 31/27/6 19/28/24
f 18/24/21 17/21/19 21/26/23 22/29/25
f 16/20/18 15/23/20 19/28/24 20/25/22
f 22/29/25 21/26/23 25/30/26 26/31/27
f 20/25/22 19/28/24 23/32/28 24/33/29
f 21/26/23 20/25/22 24/33/29 25/30/26
f 19/28/24 31/34/6 23/32/28
f 24/33/29 23/32/28 27/35/30 28/36/31
f 25/30/26 24/33/29 28/36/31 29/37/32
f 23/32/28 31/38/6 27/35/30
f 26/31/27 25/30/26 29/37/32 30/39/33
f 29/37/32 28/36/31 33/40/34 34/41/35
f 27/35/30 31/42/6 32/43/36
f 30/39/33 29/37/32 34/41/35 35/44/37
f 28/36/31 27/35/30 32/43/36 33/40/34
f 32/43/36 31/45/6 36/46/38
f 35/44/37 34/41/35 38/47/39 39/48/40
f 33/40/34 32/43/36 36/46/38 37/49/41
f 34/41/35 33/40/34 37/49/41 38/47/39
f 39/48/40 38/47/39 42/50/42 43/51/43
f 37/49/41 36/46/38 40/52/44 41/53/45
f 38/47/39 37/49/41 41/53/45 42/50/42
f 36/46/38 31/54/6 40/52/44
f 42/50/42 41/53/45 45/55/46 46/56/47
f 40/52/44 31/57/6 44/58/48
f 43/51/43 42/50/42 46/56/47 47/59/49
f 41/53/45 40/52/44 44/58/48 45/55/46
f 46/56/47 45/55/46 49/60/50 50/61/51
f 44/58/48 31/62/6 48/63/52
f 47/59/49 46/56/47 50/61/51 51/64/53
f 45/55/46 44/58/48 48/63/52 49/60/50
f 51/65/53 50/66/51 54/67/54 55/68/55
f 49/69/50 48/70/52 52/71/56 53/72/57
f 50/66/51 49/69/50 53/72/57 54/67/54
f 48/70/52 31/73/6 52/71/56
f 55/68/55 54/67/54 58/74/58 59/75/59
f 53/72/57 52/71/56 56/76/60 57/77/61
f 54/67/54 53/72/57 57/77/61 58/74/58
f 52/71/56 31/78/6 56/76/60
f 58/74/58 57/77/61 61/79/62 62/80/63
f 56/76/60 31/81/6 60/82/64
f 59/75/59 58/74/58 62/80/63 63/83/65
f 57/77/61 56/76/60 60/82/64 61/79/62
f 62/80/63 61/79/62 1/2/2 2/1/1
f 60/82/64 31/84/6 64/5/5
f 63/83/65 62/80/63 2/1/1 65/8/8
f 61/79/62 60/82/64 64/5/5 1/2/2
f 70/85/66 43/51/43 71/86/67
f 43/51/43 47/59/49 71/86/67
f 65/8/8 6/9/9 66/87/68
f 35/44/37 70/85/66 69/88/69
f 18/24/21 68/89/70 67/90/71
f 10/11/11 67/90/71 66/87/68
f 35/44/37 39/48/40 70/85/66
f 10/11/11 14/16/15 67/90/71
f 72/91/72 59/75/59 73/92/73
f 26/31/27 30/39/33 69/88/69
f 18/24/21 22/29/25 68/89/70
f 59/75/59 63/83/65 73/92/73
f 51/65/53 55/68/55 72/91/72
f 30/39/33 35/44/37 69/88/69
f 22/29/25 26/31/27 68/89/70
f 14/16/15 18/24/21 67/90/71
f 6/9/9 10/11/11 66/87/68
f 26/31/27 69/88/69 68/89/70
f 63/83/65 65/8/8 73/92/73
f 55/68/55 59/75/59 72/91/72
f 47/59/49 51/64/53 71/86/67
f 73/92/73 65/8/8 66/87/68
f 39/48/40 43/51/43 70/85/66
f 51/65/53 72/91/72 71/86/67
