# Blender v3.4.1 OBJ File: 'SpaceBits_export_2.blend'
# www.blender.org
mtllib dropship_door_left.mtl
o dropship_door_left_Cube.263
v 0.700000 0.500000 -0.650000
v 0.435356 0.864645 -0.750000
v 0.435356 0.864645 0.000001
v 0.700000 0.500000 -0.172318
v 0.629289 0.670711 -0.050000
v 0.629289 0.670711 -0.700000
v 0.470711 0.829289 -0.700000
v 0.470711 0.829289 -0.050000
v 0.700000 0.850000 -0.350000
v 0.700000 0.850000 -1.000000
v 0.700000 0.950000 -1.000000
v 0.700000 0.950000 -0.350000
v 1.200000 0.850000 -0.650000
v 1.200000 0.850000 -1.000000
v 1.100000 0.950000 -1.000000
v 1.100000 0.950000 -0.650000
v 0.600000 0.600000 -0.750000
v 0.385356 0.814645 -0.750000
v 0.385356 0.814645 0.000001
v 0.600000 0.600000 0.000000
v 0.700000 0.350000 -0.258032
v 0.700000 0.350000 -0.650000
v 0.600000 0.250000 -0.200000
v 0.600000 0.250000 -0.750000
v 0.700000 0.600000 0.000000
v 0.700000 0.600000 -0.750000
v 0.700000 0.250000 -0.200000
v 0.700000 0.250000 -0.750000
v 0.650000 0.425000 -0.315175
v 0.650000 0.425000 -0.550000
v 1.500000 1.300002 -0.850000
v 1.500000 1.300002 -1.200000
v 1.360000 1.300002 -1.200000
v 1.360000 1.300002 -0.850000
v 1.000000 0.950001 -0.649999
v 0.950000 1.000001 -0.649999
v 0.950000 0.950001 -0.599999
v 0.800000 0.950001 -0.649999
v 0.850000 0.950001 -0.599999
v 0.850000 1.000001 -0.649999
v 1.000000 0.950001 -0.849999
v 0.950000 0.950001 -0.899999
v 0.950000 1.000001 -0.849999
v 0.800000 0.950001 -0.849999
v 0.850000 1.000001 -0.849999
v 0.850000 0.950001 -0.899999
v 0.817144 0.450002 -0.857603
v 0.817144 0.450001 -0.662360
v 0.699987 0.567159 -0.857603
v 0.699987 0.567159 -0.506600
v 0.699987 0.732844 -0.857603
v 0.699987 0.732844 -0.369164
v 0.817144 0.850001 -0.857603
v 0.817144 0.850001 -0.330561
v 0.982831 0.850001 -0.857603
v 0.982831 0.850001 -0.413404
v 1.099987 0.732844 -0.857603
v 1.099987 0.732844 -0.569164
v 1.099987 0.567159 -0.857603
v 1.099987 0.567159 -0.706599
v 0.982831 0.450001 -0.857603
v 0.982831 0.450001 -0.745203
v 0.868785 0.541769 -0.564593
v 0.809516 0.601038 -0.485796
v 0.809516 0.698966 -0.404565
v 0.868785 0.758234 -0.385036
v 0.931190 0.758234 -0.416239
v 0.990459 0.698966 -0.495036
v 0.990459 0.601038 -0.576267
v 0.931190 0.541769 -0.595796
v 0.748877 0.587410 -0.905069
v 0.837395 0.498891 -0.905069
v 0.748877 0.712594 -0.905069
v 0.837395 0.801113 -0.905069
v 0.962580 0.801113 -0.905069
v 1.051098 0.712594 -0.905069
v 1.051098 0.587410 -0.905069
v 0.962580 0.498891 -0.905069
v 0.837395 0.498891 -0.584466
v 0.748877 0.587409 -0.466781
v 0.748877 0.712594 -0.362941
v 0.837395 0.801113 -0.333774
v 0.962580 0.801113 -0.396366
v 1.051098 0.712594 -0.514051
v 1.051098 0.587409 -0.617892
v 0.962579 0.498891 -0.647058
v 0.899987 0.650002 -0.775208
v 0.817144 0.450002 -1.057603
v 0.699987 0.567159 -1.057603
v 0.699987 0.732844 -1.057603
v 0.817144 0.850001 -1.057603
v 0.982831 0.850001 -1.057603
v 1.099987 0.732844 -1.057603
v 1.099987 0.567159 -1.057603
v 0.982831 0.450001 -1.057603
v 0.899987 0.650002 -0.805069
v 0.817144 0.450002 -0.957603
v 0.699987 0.567159 -0.957603
v 0.699987 0.732844 -0.957603
v 0.817144 0.850001 -0.957603
v 0.982831 0.850001 -0.957603
v 1.099987 0.732844 -0.957603
v 1.099987 0.567159 -0.957603
v 0.982831 0.450001 -0.957603
v 0.748877 0.587410 -1.105069
v 0.837395 0.498891 -1.105069
v 0.748877 0.712594 -1.105069
v 0.837395 0.801113 -1.105069
v 0.962580 0.801113 -1.105069
v 1.051098 0.712594 -1.105069
v 1.051098 0.587410 -1.105069
v 0.962580 0.498891 -1.105069
v 0.789405 0.695807 -1.105069
v 0.854183 0.760585 -1.105069
v 0.945792 0.760585 -1.105069
v 1.010570 0.695807 -1.105069
v 1.010570 0.604197 -1.105069
v 0.945792 0.539419 -1.105069
v 0.854182 0.539419 -1.105069
v 0.789405 0.604197 -1.105069
vt 0.199793 0.823863
vt 0.199793 0.823863
vt 0.203264 0.837363
vt 0.203264 0.837363
vt 0.199793 0.886363
vt 0.199793 0.886363
vt 0.203264 0.881039
vt 0.203264 0.881039
vt 0.192011 0.898304
vt 0.190275 0.900966
vt 0.192011 0.898304
vt 0.190275 0.900966
vt 0.203264 0.923018
vt 0.203264 0.923018
vt 0.217988 0.923018
vt 0.217988 0.923018
vt 0.199793 0.870738
vt 0.203264 0.884238
vt 0.203264 0.891768
vt 0.192011 0.851429
vt 0.203264 0.860518
vt 0.203264 0.852988
vt 0.192011 0.882679
vt 0.192011 0.882679
vt 0.203264 0.891768
vt 0.217988 0.923018
vt 0.217988 0.923018
vt 0.217988 0.837363
vt 0.217988 0.837363
vt 0.217988 0.884238
vt 0.217988 0.891768
vt 0.217988 0.860518
vt 0.217988 0.852988
vt 0.199793 0.839488
vt 0.190275 0.854091
vt 0.190275 0.854091
vt 0.187822 0.850326
vt 0.187822 0.850326
vt 0.198356 0.802914
vt 0.187822 0.819076
vt 0.187822 0.819076
vt 0.198356 0.802914
vt 0.203264 0.834164
vt 0.198356 0.834164
vt 0.203264 0.834164
vt 0.198356 0.834164
vt 0.203264 0.807809
vt 0.203264 0.807809
vt 0.198356 0.807809
vt 0.198356 0.807809
vt 0.203264 0.815339
vt 0.203264 0.815339
vt 0.203264 0.815339
vt 0.203264 0.815339
vt 0.198356 0.818539
vt 0.198356 0.792184
vt 0.198356 0.792184
vt 0.198356 0.818539
vt 0.203264 0.857884
vt 0.203264 0.857884
vt 0.203264 0.865414
vt 0.203264 0.865414
vt 0.203264 0.846589
vt 0.203264 0.846589
vt 0.203264 0.839059
vt 0.203264 0.839059
vt 0.203264 0.811009
vt 0.203264 0.799714
vt 0.203264 0.811009
vt 0.203264 0.795384
vt 0.203264 0.795384
vt 0.203264 0.795384
vt 0.203264 0.795384
vt 0.203264 0.799714
vt 0.203264 0.811009
vt 0.203264 0.799714
vt 0.217988 0.891768
vt 0.217988 0.891768
vt 0.217988 0.884238
vt 0.217988 0.884238
vt 0.217988 0.837363
vt 0.217988 0.837363
vt 0.217988 0.860518
vt 0.217988 0.852988
vt 0.336197 0.841959
vt 0.336197 0.876975
vt 0.336197 0.876975
vt 0.336197 0.841959
vt 0.318688 0.793200
vt 0.336197 0.810709
vt 0.318688 0.810709
vt 0.318688 0.894484
vt 0.318688 0.876975
vt 0.318688 0.793200
vt 0.318688 0.810709
vt 0.336197 0.810709
vt 0.318688 0.894484
vt 0.318688 0.876975
vt 0.336197 0.861350
vt 0.336197 0.826334
vt 0.318688 0.826334
vt 0.318688 0.861350
vt 0.318688 0.777575
vt 0.318688 0.777575
vt 0.336197 0.795084
vt 0.336197 0.795084
vt 0.318688 0.925734
vt 0.318688 0.925734
vt 0.336197 0.908225
vt 0.336197 0.908225
vt 0.318688 0.861350
vt 0.318688 0.826334
vt 0.336197 0.826334
vt 0.336197 0.861350
vt 0.321700 0.865162
vt 0.321700 0.816744
vt 0.307156 0.816744
vt 0.307156 0.865162
vt 0.286586 0.865162
vt 0.286586 0.816744
vt 0.307156 0.816744
vt 0.307156 0.865162
vt 0.272043 0.865162
vt 0.272043 0.816744
vt 0.272043 0.865162
vt 0.272043 0.816744
vt 0.286586 0.865162
vt 0.286586 0.816744
vt 0.321700 0.816744
vt 0.321700 0.865162
vt 0.307156 0.798602
vt 0.321700 0.798602
vt 0.320320 0.795913
vt 0.306584 0.795913
vt 0.321700 0.883304
vt 0.307156 0.883304
vt 0.306584 0.885995
vt 0.320320 0.885995
vt 0.321700 0.798602
vt 0.320320 0.795913
vt 0.321700 0.883304
vt 0.320320 0.885995
vt 0.307156 0.798602
vt 0.306584 0.795913
vt 0.307156 0.883304
vt 0.306584 0.885995
vt 0.286586 0.798602
vt 0.287159 0.795913
vt 0.286586 0.883304
vt 0.287159 0.885995
vt 0.272043 0.798602
vt 0.273422 0.795913
vt 0.272043 0.883304
vt 0.273422 0.885995
vt 0.272043 0.798602
vt 0.273422 0.795913
vt 0.272043 0.883304
vt 0.273422 0.885995
vt 0.286586 0.798602
vt 0.287159 0.795913
vt 0.286586 0.883304
vt 0.287159 0.885995
vt 0.417029 0.832566
vt 0.407832 0.832566
vt 0.417029 0.832566
vt 0.272043 0.829852
vt 0.272043 0.829852
vt 0.273422 0.827163
vt 0.273422 0.827163
vt 0.286586 0.829852
vt 0.287159 0.827163
vt 0.307156 0.829852
vt 0.306584 0.827163
vt 0.301713 0.832566
vt 0.310910 0.832566
vt 0.320320 0.832566
vt 0.306584 0.832566
vt 0.310910 0.832566
vt 0.320320 0.832566
vt 0.301713 0.832566
vt 0.306584 0.832566
vt 0.292029 0.832566
vt 0.287159 0.832566
vt 0.282832 0.832566
vt 0.273422 0.832566
vt 0.282832 0.832566
vt 0.273422 0.832566
vt 0.292029 0.832566
vt 0.287159 0.832566
vt 0.407832 0.832566
vt 0.417029 0.832566
vt 0.407832 0.832566
vt 0.426713 0.832566
vt 0.435910 0.832566
vt 0.426713 0.832566
vt 0.435910 0.832566
vt 0.426713 0.832566
vt 0.435910 0.832566
vt 0.307156 0.814227
vt 0.321700 0.814227
vt 0.320320 0.811538
vt 0.306584 0.811538
vt 0.321700 0.814227
vt 0.320320 0.811538
vt 0.307156 0.814227
vt 0.306584 0.811538
vt 0.286586 0.814227
vt 0.287159 0.811538
vt 0.272043 0.814227
vt 0.273422 0.811538
vt 0.272043 0.814227
vt 0.273422 0.811538
vt 0.286586 0.814227
vt 0.287159 0.811538
vt 0.321700 0.798602
vt 0.307156 0.798602
vt 0.307156 0.798602
vt 0.321700 0.798602
vt 0.286586 0.798602
vt 0.307156 0.798602
vt 0.307156 0.798602
vt 0.286586 0.798602
vt 0.286586 0.798602
vt 0.272043 0.798602
vt 0.272043 0.798602
vt 0.286586 0.798602
vt 0.321700 0.798602
vt 0.321700 0.798602
vt 0.272043 0.798602
vt 0.272043 0.798602
vt 0.310553 0.786842
vt 0.318262 0.786842
vt 0.320320 0.786842
vt 0.306584 0.786842
vt 0.313440 0.786842
vt 0.305731 0.786842
vt 0.306584 0.786842
vt 0.320320 0.786842
vt 0.294830 0.786842
vt 0.305731 0.786842
vt 0.287159 0.786842
vt 0.280303 0.786842
vt 0.288011 0.786842
vt 0.273422 0.786842
vt 0.275481 0.786842
vt 0.275481 0.786842
vt 0.273422 0.786842
vt 0.283189 0.786842
vt 0.287159 0.786842
vt 0.298912 0.786842
vt 0.288011 0.786842
vt 0.286586 0.829852
vt 0.287159 0.827163
vt 0.307156 0.829852
vt 0.306584 0.827163
vt 0.321700 0.829852
vt 0.320320 0.827163
vt 0.321700 0.829852
vt 0.320320 0.827163
vt 0.430731 0.849342
vt 0.438440 0.849342
vt 0.430731 0.786842
vt 0.318262 0.786842
vt 0.400481 0.849342
vt 0.408189 0.849342
vt 0.400481 0.786842
vt 0.413011 0.849342
vt 0.405303 0.849342
vt 0.413011 0.786842
vt 0.443262 0.849342
vt 0.435553 0.849342
vt 0.443262 0.786842
vt 0.413011 0.849342
vt 0.423912 0.849342
vt 0.400481 0.849342
vt 0.430731 0.849342
vt 0.419830 0.849342
vt 0.443262 0.849342
vn 0.9303 -0.3669 0.0000
vn 0.7071 0.7071 0.0000
vn 0.0000 1.0000 0.0000
vn 0.9733 0.0000 0.2294
vn -0.7945 0.0000 -0.6072
vn -0.4658 0.8849 -0.0000
vn -0.8027 0.5963 0.0000
vn -0.0000 -1.0000 0.0000
vn 0.5345 0.2673 0.8018
vn 0.0000 0.0000 -1.0000
vn -0.6092 -0.6092 -0.5077
vn 0.5455 0.5455 0.6364
vn -0.7071 0.7071 0.0000
vn -0.7071 -0.7071 0.0000
vn 0.0000 -0.0000 1.0000
vn 0.0000 -0.4961 0.8682
vn 0.8320 0.5547 0.0000
vn -1.0000 0.0000 0.0000
vn 1.0000 0.0000 0.0000
vn 0.8666 0.2476 -0.4333
vn 0.8321 -0.5547 0.0000
vn 0.8944 0.0000 0.4472
vn 0.1487 0.3570 0.9222
vn -0.1487 -0.3570 -0.9222
vn 0.5774 0.5774 0.5773
vn -0.5774 0.5773 0.5774
vn 0.5773 0.5774 -0.5774
vn -0.5773 0.5774 -0.5774
vn 0.0000 0.7071 -0.7071
vn 0.0000 0.7071 0.7071
vn 0.7071 -0.7071 -0.0000
vn -0.4926 -0.4926 -0.7175
vn -0.1022 -0.8304 0.5477
vn -0.6966 0.0000 -0.7175
vn -0.3407 -0.6002 0.7236
vn -0.4926 0.4926 -0.7175
vn -0.1816 -0.1392 0.9735
vn 0.0000 0.6966 -0.7175
vn 0.4437 0.1255 0.8874
vn 0.4926 0.4926 -0.7175
vn 0.7614 -0.0918 0.6417
vn 0.6966 -0.0000 -0.7175
vn 0.7495 -0.4227 0.5095
vn 0.4926 -0.4926 -0.7175
vn 0.5469 -0.6988 0.4610
vn -0.0000 -0.6966 -0.7175
vn 0.2359 -0.8495 0.4719
vn -0.7004 0.5508 0.4541
vn 0.6509 -0.2696 0.7097
vn 0.6509 0.2696 0.7097
vn 0.2696 -0.6509 0.7097
vn -0.2696 -0.6509 0.7097
vn 0.3592 -0.5958 0.7183
vn -0.5977 -0.7345 0.3214
vn -0.0217 -0.9567 0.2903
vn 0.3193 -0.7057 0.6324
vn 0.4243 -0.8632 0.2734
vn 0.7644 -0.5880 0.2643
vn 0.9556 -0.0474 0.2907
vn 0.8505 0.4058 0.3345
vn 0.2358 0.8497 0.4716
vn -0.8977 -0.2812 0.3390
vn -0.9239 -0.3827 0.0000
vn 0.9239 -0.3827 0.0000
vn -0.9239 0.3827 0.0000
vn 0.9239 0.3827 0.0000
vn 0.2696 0.6509 0.7097
vn -0.2696 0.6509 0.7097
vn -0.6509 0.2696 0.7097
vn -0.6509 -0.2696 0.7097
vn 0.3554 0.8581 -0.3706
vn 0.8581 0.3554 -0.3706
vn -0.8581 0.3554 -0.3706
vn -0.3554 0.8581 -0.3706
vn -0.3554 -0.8581 -0.3706
vn -0.8581 -0.3554 -0.3706
vn 0.8581 -0.3554 -0.3706
vn 0.3554 -0.8581 -0.3706
usemtl spacebits_texture
s off
f 5/1/1 6/2/1 10/3/1 9/4/1
f 6/5/2 5/6/2 25/7/2 26/8/2
f 7/9/2 6/5/2 26/8/2 2/10/2
f 8/11/2 7/9/2 2/10/2 3/12/2
f 5/6/2 8/11/2 3/12/2 25/7/2
f 11/13/3 12/14/3 16/15/3 15/16/3
f 5/17/4 9/18/4 12/19/4
f 7/20/5 11/21/5 10/22/5
f 7/23/6 8/24/6 12/19/6 11/25/6
f 15/16/7 16/15/7 34/26/7 33/27/7
f 9/4/8 10/3/8 14/28/8 13/29/8
f 12/19/9 9/18/9 13/30/9 16/31/9
f 10/22/10 11/21/10 15/32/10 14/33/10
f 6/34/11 7/20/11 10/22/11
f 8/24/12 5/17/12 12/19/12
f 3/35/13 2/36/13 18/37/13 19/38/13
f 20/39/14 19/40/14 18/41/14 17/42/14
f 25/43/15 3/35/15 19/38/15 20/44/15
f 2/36/10 26/45/10 17/46/10 18/37/10
f 28/47/8 27/48/8 23/49/8 24/50/8
f 25/43/16 20/44/16 23/49/16 27/48/16
f 21/51/17 22/52/17 30/53/17 29/54/17
f 17/55/18 24/56/18 23/57/18 20/58/18
f 17/46/10 26/45/10 28/47/10 24/50/10
f 4/59/19 1/60/19 26/61/19 25/62/19
f 22/63/19 21/64/19 27/65/19 28/66/19
f 21/64/19 4/59/19 25/62/19 27/65/19
f 1/60/19 22/63/19 28/66/19 26/61/19
f 4/67/20 21/68/20 29/69/20
f 1/70/21 4/71/21 29/72/21 30/73/21
f 22/74/22 1/75/22 30/76/22
f 33/77/3 34/78/3 31/79/3 32/80/3
f 13/29/21 14/28/21 32/81/21 31/82/21
f 16/31/23 13/30/23 31/79/23 34/78/23
f 14/33/24 15/32/24 33/83/24 32/84/24
f 43/85/3 45/86/3 40/87/3 36/88/3
f 35/89/25 36/90/25 37/91/25
f 38/92/26 39/93/26 40/87/26
f 41/94/27 42/95/27 43/96/27
f 44/97/28 45/86/28 46/98/28
f 45/99/29 43/100/29 42/101/29 46/102/29
f 35/103/2 41/104/2 43/105/2 36/106/2
f 44/107/13 38/108/13 40/109/13 45/110/13
f 39/111/30 37/112/30 36/113/30 40/114/30
s 1
f 50/115/14 49/116/14 47/117/14 48/118/14
f 56/119/3 55/120/3 53/121/3 54/122/3
f 55/120/2 56/119/2 58/123/2 57/124/2
f 57/124/19 58/123/19 60/125/19 59/126/19
f 59/126/31 60/125/31 62/127/31 61/128/31
f 51/129/13 52/130/13 54/122/13 53/121/13
f 52/130/18 51/129/18 49/116/18 50/115/18
f 47/131/32 49/132/32 71/133/32 72/134/32
f 50/135/33 48/136/33 79/137/33 80/138/33
f 49/132/34 51/139/34 73/140/34 71/133/34
f 52/141/35 50/135/35 80/138/35 81/142/35
f 51/139/36 53/143/36 74/144/36 73/140/36
f 54/145/37 52/141/37 81/142/37 82/146/37
f 53/143/38 55/147/38 75/148/38 74/144/38
f 56/149/39 54/145/39 82/146/39 83/150/39
f 55/147/40 57/151/40 76/152/40 75/148/40
f 58/153/41 56/149/41 83/150/41 84/154/41
f 57/151/42 59/155/42 77/156/42 76/152/42
f 60/157/43 58/153/43 84/154/43 85/158/43
f 59/155/44 61/159/44 78/160/44 77/156/44
f 62/161/45 60/157/45 85/158/45 86/162/45
f 61/159/46 47/131/46 72/134/46 78/160/46
f 48/136/47 62/161/47 86/162/47 79/137/47
f 48/118/8 47/117/8 61/128/8 62/127/8
f 70/163/48 69/164/48 87/165/48
f 103/166/49 102/167/50 76/168/50 77/169/49
f 104/170/51 103/166/49 77/169/49 78/171/51
f 97/172/52 104/170/51 78/171/51 72/173/52
f 63/174/53 64/175/53 80/176/53 79/177/53
f 64/175/53 65/178/53 81/179/53 80/176/53
f 65/178/53 66/180/53 82/181/53 81/179/53
f 66/180/53 67/182/53 83/183/53 82/181/53
f 67/182/53 68/184/53 84/185/53 83/183/53
f 68/184/53 69/186/53 85/187/53 84/185/53
f 69/186/53 70/188/53 86/189/53 85/187/53
f 70/188/53 63/174/53 79/177/53 86/189/53
f 68/190/54 67/191/55 87/192/56
f 66/193/57 65/194/58 87/195/56
f 64/196/59 63/197/60 87/198/56
f 63/197/61 70/163/61 87/195/61
f 69/164/62 68/190/54 87/192/56
f 67/191/55 66/193/57 87/165/56
f 65/194/58 64/196/59 87/198/56
f 88/199/32 89/200/32 105/201/32 106/202/32
f 89/200/34 90/203/34 107/204/34 105/201/34
f 90/203/36 91/205/36 108/206/36 107/204/36
f 91/205/38 92/207/38 109/208/38 108/206/38
f 92/207/40 93/209/40 110/210/40 109/208/40
f 93/209/42 94/211/42 111/212/42 110/210/42
f 94/211/44 95/213/44 112/214/44 111/212/44
f 95/213/46 88/199/46 106/202/46 112/214/46
f 89/215/63 88/216/14 97/217/14 98/218/63
f 92/219/3 91/220/3 100/221/3 101/222/3
f 95/223/31 94/224/64 103/225/64 104/226/31
f 90/227/65 89/215/63 98/218/63 99/228/65
f 93/229/66 92/219/2 101/222/2 102/230/66
f 88/216/8 95/223/8 104/226/8 97/217/8
f 91/220/13 90/227/65 99/228/65 100/221/13
f 94/224/64 93/229/66 102/230/66 103/225/64
f 114/231/10 113/232/10 107/233/10 108/234/10
f 120/235/10 119/236/10 106/237/10 105/238/10
f 115/239/10 114/240/10 108/234/10 109/241/10
f 116/242/10 115/243/10 109/241/10 110/244/10
f 117/245/10 116/246/10 110/244/10 111/247/10
f 118/248/10 117/245/10 111/247/10 112/249/10
f 119/250/10 118/251/10 112/249/10 106/237/10
f 102/167/50 101/252/67 75/253/67 76/168/50
f 101/252/67 100/254/68 74/255/68 75/253/67
f 100/254/68 99/256/69 73/257/69 74/255/68
f 99/256/69 98/258/70 71/259/70 73/257/69
f 98/258/70 97/172/52 72/173/52 71/259/70
f 119/260/71 120/261/72 96/262/10
f 113/232/10 120/263/10 105/238/10 107/233/10
f 117/264/73 118/265/74 96/266/10
f 115/267/75 116/268/76 96/269/10
f 113/270/77 114/271/78 96/272/10
f 118/273/74 119/274/71 96/269/10
f 116/275/76 117/264/73 96/266/10
f 114/276/78 115/277/75 96/262/10
f 120/278/72 113/270/77 96/272/10
