# Blender v3.4.1 OBJ File: 'SpaceBits_export_2.blend'
# www.blender.org
mtllib mobile_base_frame_wheel_right_rear.mtl
o mobile_base_frame_wheel_right_rear_Cylinder.610
v -0.703318 0.098397 -0.348352
v -0.753318 0.066985 -0.316940
v -0.996585 0.098397 -0.348352
v -0.946584 0.066985 -0.316940
v -0.703318 0.042907 -0.444463
v -0.753318 -0.000002 -0.432966
v -0.996585 0.042907 -0.444463
v -0.946584 -0.000002 -0.432966
v -0.703318 0.042907 -0.555443
v -0.753318 -0.000002 -0.566940
v -0.996585 0.042907 -0.555443
v -0.946584 -0.000002 -0.566940
v -0.703318 0.098397 -0.651554
v -0.753318 0.066985 -0.682966
v -0.996585 0.098397 -0.651554
v -0.946584 0.066985 -0.682966
v -0.703318 0.194508 -0.707044
v -0.753318 0.183010 -0.749953
v -0.996585 0.194508 -0.707044
v -0.946584 0.183010 -0.749953
v -0.703318 0.305488 -0.707044
v -0.753318 0.316985 -0.749953
v -0.996585 0.305487 -0.707044
v -0.946584 0.316985 -0.749953
v -0.703318 0.401599 -0.651554
v -0.753318 0.433010 -0.682966
v -0.996585 0.401599 -0.651554
v -0.946584 0.433010 -0.682966
v -0.703318 0.457089 -0.555443
v -0.753318 0.499998 -0.566940
v -0.996585 0.457088 -0.555443
v -0.946584 0.499998 -0.566940
v -0.703318 0.457089 -0.444463
v -0.753318 0.499998 -0.432966
v -0.996585 0.457088 -0.444463
v -0.946584 0.499998 -0.432966
v -0.703318 0.401599 -0.348352
v -0.753318 0.433010 -0.316940
v -0.996585 0.401599 -0.348352
v -0.946584 0.433010 -0.316940
v -0.703318 0.305488 -0.292862
v -0.753318 0.316985 -0.249953
v -0.996585 0.305488 -0.292862
v -0.946584 0.316985 -0.249953
v -0.703318 0.194508 -0.292862
v -0.753318 0.183011 -0.249953
v -0.996585 0.194508 -0.292862
v -0.946584 0.183011 -0.249953
v -0.698651 0.249998 -0.499953
v -0.998650 0.146999 -0.472355
v -0.998650 0.174598 -0.424553
v -0.998650 0.222399 -0.396955
v -0.998650 0.277596 -0.396955
v -0.998650 0.325398 -0.424553
v -0.998650 0.352997 -0.472354
v -0.998651 0.352997 -0.527551
v -0.998651 0.325398 -0.575354
v -0.998651 0.277596 -0.602952
v -0.998651 0.222399 -0.602952
v -0.998650 0.174597 -0.575353
v -0.998650 0.146999 -0.527551
v -0.970218 0.193816 -0.443771
v -0.970218 0.173252 -0.499952
v -0.970218 0.249997 -0.423207
v -0.970218 0.306178 -0.443771
v -0.970218 0.326742 -0.499952
v -0.970218 0.306179 -0.556133
v -0.970218 0.249997 -0.576697
v -0.970218 0.193816 -0.556133
v -0.997688 0.249997 -0.499952
vt 0.789064 0.620763
vt 0.838376 0.638348
vt 0.838376 0.632181
vt 0.789064 0.614596
vt 0.789064 0.524873
vt 0.838376 0.542458
vt 0.838376 0.561984
vt 0.789064 0.544400
vt 0.789064 0.515467
vt 0.838376 0.533052
vt 0.838376 0.571391
vt 0.789064 0.553806
vt 0.789064 0.524873
vt 0.838376 0.542458
vt 0.838376 0.597084
vt 0.789064 0.579499
vt 0.789064 0.550567
vt 0.838376 0.568151
vt 0.838376 0.632181
vt 0.789064 0.614596
vt 0.789064 0.585663
vt 0.838376 0.603248
vt 0.838376 0.667280
vt 0.789064 0.649696
vt 0.789064 0.620763
vt 0.838376 0.638348
vt 0.838376 0.692973
vt 0.789064 0.675389
vt 0.789064 0.646456
vt 0.838376 0.664041
vt 0.838376 0.702377
vt 0.789064 0.684793
vt 0.789064 0.655860
vt 0.838376 0.673444
vt 0.838376 0.692973
vt 0.789064 0.675389
vt 0.789064 0.646456
vt 0.838376 0.664041
vt 0.838376 0.667280
vt 0.789064 0.649696
vt 0.789064 0.550567
vt 0.838376 0.568151
vt 0.838376 0.571391
vt 0.789064 0.553806
vt 0.573504 0.890441
vt 0.566369 0.917186
vt 0.561400 0.906433
vt 0.789064 0.585663
vt 0.838376 0.603248
vt 0.838376 0.597084
vt 0.789064 0.579499
vt 0.789064 0.637676
vt 0.789064 0.602579
vt 0.781613 0.606150
vt 0.781613 0.637676
vt 0.838376 0.620164
vt 0.838376 0.655261
vt 0.845826 0.637676
vt 0.845826 0.606150
vt 0.789064 0.576886
vt 0.781613 0.583071
vt 0.838376 0.594471
vt 0.845826 0.583071
vt 0.789064 0.567480
vt 0.781613 0.574623
vt 0.838376 0.585064
vt 0.845826 0.574623
vt 0.789064 0.576886
vt 0.781613 0.583071
vt 0.838376 0.594471
vt 0.845826 0.583071
vt 0.789064 0.602579
vt 0.781613 0.606150
vt 0.838376 0.620164
vt 0.845826 0.606150
vt 0.789064 0.637676
vt 0.781613 0.637676
vt 0.838376 0.655261
vt 0.845826 0.637676
vt 0.789064 0.672776
vt 0.781613 0.669205
vt 0.838376 0.690360
vt 0.845826 0.669205
vt 0.789064 0.698469
vt 0.781613 0.692284
vt 0.838376 0.716053
vt 0.845826 0.692284
vt 0.789064 0.707872
vt 0.781613 0.700732
vt 0.838376 0.725457
vt 0.845826 0.700732
vt 0.789064 0.698469
vt 0.781613 0.692284
vt 0.838376 0.716053
vt 0.845826 0.692284
vt 0.789064 0.672776
vt 0.781613 0.669205
vt 0.838376 0.690360
vt 0.845826 0.669205
vt 0.781613 0.606903
vt 0.781613 0.575376
vt 0.781613 0.606903
vt 0.781613 0.552298
vt 0.781613 0.543850
vt 0.781613 0.552298
vt 0.781613 0.575376
vt 0.781613 0.606903
vt 0.781613 0.638432
vt 0.781613 0.661510
vt 0.781613 0.669958
vt 0.781613 0.661510
vt 0.781613 0.638432
vt 0.845826 0.637676
vt 0.845826 0.618195
vt 0.845826 0.657157
vt 0.845826 0.671420
vt 0.845826 0.676638
vt 0.845826 0.671420
vt 0.845826 0.657157
vt 0.845826 0.637676
vt 0.845826 0.618195
vt 0.845826 0.603935
vt 0.845826 0.598714
vt 0.845826 0.603935
vt 0.539739 0.817374
vt 0.546875 0.832062
vt 0.532349 0.843567
vt 0.554010 0.817374
vt 0.520245 0.890441
vt 0.527033 0.875000
vt 0.532349 0.906433
vt 0.554010 0.932627
vt 0.546875 0.917938
vt 0.573504 0.859559
vt 0.566717 0.875000
vt 0.561400 0.843567
vt 0.520245 0.859559
vt 0.539739 0.932627
vt 0.527380 0.832814
vt 0.566368 0.832815
vt 0.527380 0.917186
vt 0.561400 0.859558
vt 0.546875 0.828125
vt 0.566717 0.828125
vt 0.546875 0.871063
vt 0.532349 0.859558
vt 0.527033 0.828125
vt 0.532349 0.796692
vt 0.546875 0.785187
vt 0.561400 0.796692
vn 0.0000 -0.2588 0.9659
vn 0.0000 -0.7071 0.7071
vn -0.0000 -0.9659 -0.2588
vn -0.0000 -0.7071 -0.7071
vn -0.0000 -0.2588 -0.9659
vn -0.0000 0.2588 -0.9659
vn -0.0000 0.7071 -0.7071
vn -0.0000 0.9659 -0.2588
vn -0.0000 0.9659 0.2588
vn 0.0000 0.7071 0.7071
vn 0.0000 0.2588 0.9659
vn 0.0000 -0.9659 0.2588
vn -0.7247 -0.1827 -0.6644
vn -0.6910 -0.5111 -0.5111
vn -0.7386 -0.4767 -0.4767
vn 0.6642 -0.5286 0.5286
vn 0.6642 -0.7221 0.1935
vn -0.6642 -0.7221 0.1935
vn -0.6642 -0.5286 0.5286
vn 0.6642 -0.7221 -0.1935
vn -0.6642 -0.7221 -0.1935
vn 0.6642 -0.5286 -0.5286
vn -0.6642 -0.5286 -0.5286
vn 0.6642 -0.1935 -0.7221
vn -0.6642 -0.1935 -0.7221
vn 0.6642 0.1935 -0.7221
vn -0.6642 0.1935 -0.7221
vn 0.6642 0.5286 -0.5286
vn -0.6642 0.5286 -0.5286
vn 0.6642 0.7221 -0.1935
vn -0.6642 0.7221 -0.1935
vn 0.6642 0.7221 0.1935
vn -0.6642 0.7221 0.1935
vn 0.6642 0.5286 0.5286
vn -0.6642 0.5286 0.5286
vn 0.6642 0.1935 0.7221
vn -0.6642 0.1935 0.7221
vn 0.6642 -0.1935 0.7221
vn -0.6642 -0.1935 0.7221
vn 0.9998 -0.0154 0.0154
vn 0.9998 -0.0210 0.0056
vn 1.0000 0.0000 -0.0000
vn 0.9998 -0.0210 -0.0056
vn 0.9998 -0.0154 -0.0154
vn 0.9998 -0.0056 -0.0210
vn 0.9998 0.0056 -0.0210
vn 0.9998 0.0154 -0.0154
vn 0.9998 0.0210 -0.0056
vn 0.9998 0.0210 0.0056
vn 0.9998 0.0154 0.0154
vn 0.9998 0.0056 0.0210
vn 0.9998 -0.0056 0.0210
vn -0.9998 -0.0185 0.0050
vn -0.9998 -0.0135 0.0135
vn -0.9998 -0.0050 0.0185
vn -0.9998 0.0050 0.0185
vn -0.9998 0.0135 0.0136
vn -0.9998 0.0185 0.0050
vn -0.9998 0.0185 -0.0050
vn -0.9998 0.0136 -0.0136
vn -0.9998 0.0050 -0.0185
vn -0.9998 -0.0050 -0.0185
vn -0.9998 -0.0136 -0.0136
vn -0.9998 -0.0185 -0.0050
vn -0.7247 0.6644 0.1827
vn -0.7522 0.6589 -0.0000
vn -0.7386 0.4767 0.4767
vn -0.7247 0.6644 -0.1827
vn -0.7248 -0.1827 0.6643
vn -0.7523 0.0000 0.6589
vn -0.7386 -0.4767 0.4767
vn -0.7247 -0.6644 -0.1827
vn -0.7523 -0.6589 -0.0000
vn -0.7247 0.1827 -0.6644
vn -0.7522 0.0000 -0.6589
vn -0.7386 0.4767 -0.4767
vn -0.7248 0.1827 0.6643
vn -0.7248 -0.6643 0.1827
vn -0.6910 0.5111 0.5111
vn -0.6910 0.5111 -0.5111
vn -0.6910 -0.5111 0.5111
vn -0.9451 0.2311 0.2311
vn -1.0000 -0.0000 0.0000
vn -0.9415 -0.0000 0.3370
vn -0.9415 0.3370 0.0000
vn -0.9451 0.2310 -0.2310
vn -0.9415 -0.0000 -0.3370
vn -0.9451 -0.2311 -0.2310
vn -0.9415 -0.3370 0.0000
vn -0.9451 -0.2311 0.2311
usemtl spacebits_texture
s 1
f 46/1/1 48/2/1 4/3/2 2/4/2
f 10/5/3 12/6/3 16/7/4 14/8/4
f 14/9/4 16/10/4 20/11/5 18/12/5
f 18/13/5 20/14/5 24/15/6 22/16/6
f 22/17/6 24/18/6 28/19/7 26/20/7
f 26/21/7 28/22/7 32/23/8 30/24/8
f 30/25/8 32/26/8 36/27/9 34/28/9
f 34/29/9 36/30/9 40/31/10 38/32/10
f 38/33/10 40/34/10 44/35/11 42/36/11
f 42/37/11 44/38/11 48/39/1 46/40/1
f 6/41/12 8/42/12 12/43/3 10/44/3
f 53/45/13 54/46/14 65/47/15
f 2/48/2 4/49/2 8/50/12 6/51/12
f 2/52/16 6/53/17 5/54/17 1/55/16
f 8/56/18 4/57/19 3/58/19 7/59/18
f 6/53/17 10/60/20 9/61/20 5/54/17
f 12/62/21 8/56/18 7/59/18 11/63/21
f 10/60/20 14/64/22 13/65/22 9/61/20
f 16/66/23 12/62/21 11/63/21 15/67/23
f 14/64/22 18/68/24 17/69/24 13/65/22
f 20/70/25 16/66/23 15/67/23 19/71/25
f 18/68/24 22/72/26 21/73/26 17/69/24
f 24/74/27 20/70/25 19/71/25 23/75/27
f 22/72/26 26/76/28 25/77/28 21/73/26
f 28/78/29 24/74/27 23/75/27 27/79/29
f 26/76/28 30/80/30 29/81/30 25/77/28
f 32/82/31 28/78/29 27/79/29 31/83/31
f 30/80/30 34/84/32 33/85/32 29/81/30
f 36/86/33 32/82/31 31/83/31 35/87/33
f 34/84/32 38/88/34 37/89/34 33/85/32
f 40/90/35 36/86/33 35/87/33 39/91/35
f 38/88/34 42/92/36 41/93/36 37/89/34
f 44/94/37 40/90/35 39/91/35 43/95/37
f 42/92/36 46/96/38 45/97/38 41/93/36
f 48/98/39 44/94/37 43/95/37 47/99/39
f 46/96/38 2/52/16 1/55/16 45/97/38
f 4/57/19 48/98/39 47/99/39 3/58/19
f 1/100/40 5/101/41 49/102/42
f 5/101/41 9/103/43 49/102/42
f 9/103/43 13/104/44 49/102/42
f 13/104/44 17/105/45 49/102/42
f 17/105/45 21/106/46 49/102/42
f 21/106/46 25/107/47 49/102/42
f 25/107/47 29/108/48 49/102/42
f 29/108/48 33/109/49 49/102/42
f 33/109/49 37/110/50 49/102/42
f 37/110/50 41/111/51 49/102/42
f 41/111/51 45/112/52 49/102/42
f 45/112/52 1/100/40 49/102/42
f 7/59/53 3/58/54 51/113/54 50/114/53
f 3/58/54 47/99/55 52/115/55 51/113/54
f 47/99/55 43/95/56 53/116/56 52/115/55
f 43/95/56 39/91/57 54/117/57 53/116/56
f 39/91/57 35/87/58 55/118/58 54/117/57
f 35/87/58 31/83/59 56/119/59 55/118/58
f 31/83/59 27/79/60 57/120/60 56/119/59
f 27/79/60 23/75/61 58/121/61 57/120/60
f 23/75/61 19/71/62 59/122/62 58/121/61
f 19/71/62 15/67/63 60/123/63 59/122/62
f 15/67/63 11/63/64 61/124/64 60/123/63
f 11/63/64 7/59/53 50/114/53 61/124/64
f 61/125/65 63/126/66 69/127/67
f 61/125/65 50/128/68 63/126/66
f 58/129/69 68/130/70 67/131/71
f 55/132/72 66/133/73 65/47/15
f 52/134/74 64/135/75 62/136/76
f 58/129/69 59/137/77 68/130/70
f 55/132/72 56/138/78 66/133/73
f 52/134/74 53/45/13 64/135/75
f 59/137/77 60/139/79 69/127/67
f 50/128/68 51/140/80 62/136/76
f 56/138/78 57/141/81 67/131/71
f 65/142/82 70/143/83 64/144/84
f 66/145/85 70/143/83 65/142/82
f 67/146/86 70/143/83 66/145/85
f 68/147/87 70/143/83 67/146/86
f 69/148/88 70/143/83 68/147/87
f 63/149/89 70/143/83 69/148/88
f 64/144/84 70/143/83 62/150/90
f 62/150/90 70/143/83 63/149/89
f 54/46/14 55/132/72 65/47/15
f 64/135/75 53/45/13 65/47/15
f 51/140/80 52/134/74 62/136/76
f 63/126/66 50/128/68 62/136/76
f 60/139/79 61/125/65 69/127/67
f 68/130/70 59/137/77 69/127/67
f 57/141/81 58/129/69 67/131/71
f 66/133/73 56/138/78 67/131/71
