# Blender v3.4.1 OBJ File: 'SpaceBits_export_2.blend'
# www.blender.org
mtllib mobile_base_frame.mtl
o mobile_base_frame_Cylinder.616
v -0.700000 0.159997 0.500000
v -0.700000 0.400000 0.550000
v -0.700000 0.400000 0.450000
v -0.600000 0.159997 0.500000
v -0.600000 0.400000 0.550000
v -0.600000 0.400000 0.450000
v 0.700000 0.159997 0.500000
v 0.700000 0.400000 0.450000
v 0.700000 0.400000 0.550000
v 0.600000 0.159997 0.500000
v 0.600000 0.400000 0.450000
v 0.600000 0.400000 0.550000
v -0.700000 0.330000 0.550000
v -0.700000 0.330000 0.450000
v -0.600000 0.330000 0.450000
v -0.600000 0.330000 0.550000
v 0.700000 0.330000 0.450000
v 0.700000 0.330000 0.550000
v 0.600000 0.330000 0.550000
v 0.600000 0.330000 0.450000
v -0.700000 0.254998 0.650000
v -0.600000 0.229997 0.650000
v 0.700000 0.254998 0.650000
v 0.600000 0.229997 0.650000
v -0.600000 0.280000 0.650000
v 0.600000 0.280000 0.650000
v -0.700000 0.159997 -0.500000
v -0.700000 0.400000 -0.450000
v -0.700000 0.400000 -0.550000
v -0.600000 0.159997 -0.500000
v -0.600000 0.400000 -0.450000
v -0.600000 0.400000 -0.550000
v 0.700000 0.159997 -0.500000
v 0.700000 0.400000 -0.550000
v 0.700000 0.400000 -0.450000
v 0.600000 0.159997 -0.500000
v 0.600000 0.400000 -0.550000
v 0.600000 0.400000 -0.450000
v -0.700000 0.330000 -0.450000
v -0.700000 0.330000 -0.550000
v -0.600000 0.330000 -0.550000
v -0.600000 0.330000 -0.450000
v 0.700000 0.330000 -0.550000
v 0.700000 0.330000 -0.450000
v 0.600000 0.330000 -0.450000
v 0.600000 0.330000 -0.550000
v -0.700000 0.254998 -0.650000
v -0.600000 0.229997 -0.650000
v 0.700000 0.254998 -0.650000
v 0.600000 0.229997 -0.650000
v -0.600000 0.280000 -0.650000
v 0.600000 0.280000 -0.650000
v 0.700000 0.159997 -0.000000
v 0.700000 0.400000 -0.050000
v 0.700000 0.400000 0.050000
v 0.600000 0.159997 -0.000000
v 0.600000 0.400000 -0.150000
v 0.600000 0.400000 0.150000
v 0.700000 0.330000 -0.050000
v 0.700000 0.330000 0.050000
v 0.600000 0.330000 0.050000
v 0.600000 0.330000 -0.050000
v -0.700000 0.159997 0.000000
v -0.700000 0.400000 0.050000
v -0.700000 0.400000 -0.050000
v -0.600000 0.159997 0.000000
v -0.600000 0.400000 0.150000
v -0.600000 0.400000 -0.150000
v -0.700000 0.330000 0.050000
v -0.700000 0.330000 -0.050000
v -0.600000 0.330000 -0.050000
v -0.600000 0.330000 0.050000
v -0.600000 0.500000 0.550000
v -0.600000 0.500000 0.450000
v 0.600000 0.500000 0.450000
v 0.600000 0.500000 0.550000
v -0.600000 0.500000 -0.450000
v -0.600000 0.500000 -0.550000
v 0.600000 0.500000 -0.550000
v 0.600000 0.500000 -0.450000
v 0.600000 0.500000 -0.150000
v 0.600000 0.500000 0.150000
v -0.600000 0.500000 0.150000
v -0.600000 0.500000 -0.150000
v -0.300000 0.400000 0.750000
v 0.300000 0.400000 0.750000
v 0.300000 0.500000 0.750000
v -0.300000 0.500000 0.750000
v 0.300000 0.500000 0.650000
v -0.300000 0.500000 0.650000
v 0.300000 0.400000 0.650000
v -0.300000 0.400000 0.650000
v -0.300000 0.400000 -0.650000
v 0.300000 0.400000 -0.650000
v 0.300000 0.500000 -0.650000
v -0.300000 0.500000 -0.650000
v 0.300000 0.500000 -0.750000
v -0.300000 0.500000 -0.750000
v 0.300000 0.400000 -0.750000
v -0.300000 0.400000 -0.750000
v -0.200000 0.329997 0.850000
v 0.200000 0.329997 0.850000
v 0.200000 0.399997 1.000000
v -0.200000 0.399997 1.000000
v 0.200000 0.450000 1.000000
v -0.200000 0.450000 1.000000
v 0.200000 0.500000 0.900000
v -0.200000 0.500000 0.900000
v -0.200000 0.329997 -0.850000
v 0.200000 0.329997 -0.850000
v 0.200000 0.500000 -0.900000
v -0.200000 0.500000 -0.900000
v 0.200000 0.450000 -1.000000
v -0.200000 0.450000 -1.000000
v 0.200000 0.399997 -1.000000
v -0.200000 0.399997 -1.000000
v 0.200000 0.300000 1.020000
v 0.200000 0.400000 1.020000
v -0.200000 0.300000 1.020000
v -0.200000 0.400000 1.020000
v 0.300000 0.200000 0.850000
v 0.300000 0.300000 0.850000
v -0.300000 0.200000 0.850000
v -0.300000 0.300000 0.850000
v 0.300000 0.200000 -0.850000
v 0.300000 0.300000 -0.850000
v -0.300000 0.200000 -0.850000
v -0.300000 0.300000 -0.850000
v 0.200000 0.300000 -1.020000
v 0.200000 0.400000 -1.020000
v -0.200000 0.300000 -1.020000
v -0.200000 0.400000 -1.020000
v 0.300000 0.200000 -0.650000
v 0.300000 0.300000 -0.650000
v -0.300000 0.200000 -0.650000
v -0.300000 0.300000 -0.650000
v 0.300000 0.200000 0.650000
v 0.300000 0.300000 0.650000
v -0.300000 0.200000 0.650000
v -0.300000 0.300000 0.650000
vt 0.411194 0.864905
vt 0.411194 0.874000
vt 0.414567 0.874000
vt 0.414567 0.864905
vt 0.414567 0.874000
vt 0.414567 0.864905
vt 0.411194 0.874000
vt 0.411194 0.864905
vt 0.414567 0.864905
vt 0.414567 0.874000
vt 0.411194 0.874000
vt 0.411194 0.864905
vt 0.411194 0.874000
vt 0.411194 0.864905
vt 0.414567 0.874000
vt 0.414567 0.864905
vt 0.412880 0.842816
vt 0.407821 0.855160
vt 0.412880 0.842816
vt 0.412880 0.842816
vt 0.411194 0.911780
vt 0.411194 0.911780
vt 0.407821 0.905283
vt 0.412880 0.842816
vt 0.407821 0.851911
vt 0.407821 0.858408
vt 0.407821 0.855160
vt 0.407821 0.858408
vt 0.407821 0.851911
vt 0.412880 0.811566
vt 0.412880 0.811566
vt 0.407821 0.820661
vt 0.407821 0.823910
vt 0.396016 0.874000
vt 0.396016 0.911746
vt 0.401076 0.833654
vt 0.396016 0.842750
vt 0.412880 0.811566
vt 0.412880 0.811566
vt 0.407821 0.823910
vt 0.407821 0.820661
vt 0.444922 0.864905
vt 0.444922 0.874000
vt 0.448295 0.874000
vt 0.448295 0.864905
vt 0.448295 0.874000
vt 0.448295 0.864905
vt 0.444922 0.874000
vt 0.444922 0.864905
vt 0.448295 0.864905
vt 0.448295 0.874000
vt 0.444922 0.874000
vt 0.444922 0.864905
vt 0.444922 0.874000
vt 0.444922 0.864905
vt 0.448295 0.874000
vt 0.448295 0.864905
vt 0.446608 0.842816
vt 0.460099 0.965118
vt 0.463472 0.958621
vt 0.451667 0.905283
vt 0.448295 0.911780
vt 0.446608 0.842816
vt 0.451667 0.855160
vt 0.451667 0.858408
vt 0.446608 0.842816
vt 0.431431 0.864905
vt 0.429744 0.842816
vt 0.446608 0.842816
vt 0.451667 0.855160
vt 0.451667 0.858408
vt 0.451667 0.851911
vt 0.451667 0.851911
vt 0.458413 0.864904
vt 0.460099 0.918243
vt 0.446608 0.811566
vt 0.446608 0.811566
vt 0.451667 0.823910
vt 0.451667 0.820661
vt 0.446608 0.811566
vt 0.446608 0.811566
vt 0.451667 0.820661
vt 0.451667 0.823910
vt 0.448295 0.911780
vt 0.431431 0.864905
vt 0.431431 0.874000
vt 0.428058 0.874000
vt 0.428058 0.864905
vt 0.424685 0.874000
vt 0.428058 0.864905
vt 0.428058 0.818030
vt 0.424685 0.827125
vt 0.434804 0.827125
vt 0.431431 0.818030
vt 0.434804 0.874000
vt 0.429744 0.811566
vt 0.429744 0.811566
vt 0.429744 0.842816
vt 0.431431 0.864905
vt 0.429744 0.842816
vt 0.428058 0.864905
vt 0.428058 0.874000
vt 0.431431 0.874000
vt 0.434804 0.874000
vt 0.431431 0.864905
vt 0.431431 0.818030
vt 0.434804 0.827125
vt 0.424685 0.827125
vt 0.428058 0.818030
vt 0.428058 0.864905
vt 0.424685 0.874000
vt 0.429744 0.842816
vt 0.429744 0.811566
vt 0.429744 0.811566
vt 0.448295 0.886993
vt 0.428058 0.920875
vt 0.424685 0.933868
vt 0.414567 0.933868
vt 0.414567 0.920875
vt 0.431431 0.920875
vt 0.434804 0.933868
vt 0.444922 0.933868
vt 0.444922 0.920875
vt 0.424685 0.933868
vt 0.428058 0.920875
vt 0.414567 0.920875
vt 0.414567 0.933868
vt 0.451667 0.933868
vt 0.455040 0.933868
vt 0.448295 0.933868
vt 0.411194 0.886993
vt 0.451667 0.874000
vt 0.451667 0.886993
vt 0.444922 0.886993
vt 0.404448 0.933868
vt 0.407821 0.933868
vt 0.411194 0.933868
vt 0.404448 0.874000
vt 0.404448 0.886993
vt 0.411194 0.886993
vt 0.434804 0.886993
vt 0.444922 0.886993
vt 0.411194 0.933868
vt 0.411194 0.920875
vt 0.434804 0.933868
vt 0.431431 0.920875
vt 0.444922 0.920875
vt 0.444922 0.933868
vt 0.448295 0.886993
vt 0.448295 0.920875
vt 0.448295 0.933868
vt 0.448295 0.920875
vt 0.424685 0.886993
vt 0.414567 0.886993
vt 0.434804 0.886993
vt 0.431431 0.842750
vt 0.434804 0.842750
vt 0.444922 0.842750
vt 0.444922 0.842750
vt 0.424685 0.886993
vt 0.414567 0.886993
vt 0.424685 0.842750
vt 0.428058 0.842750
vt 0.414567 0.842750
vt 0.414567 0.842750
vt 0.428058 0.842750
vt 0.424685 0.842750
vt 0.414567 0.842750
vt 0.414567 0.842750
vt 0.434804 0.842750
vt 0.431431 0.842750
vt 0.444922 0.842750
vt 0.444922 0.842750
vt 0.407821 0.886993
vt 0.407821 0.874000
vt 0.407821 0.827125
vt 0.404448 0.827125
vt 0.411194 0.827125
vt 0.414567 0.827125
vt 0.455040 0.886993
vt 0.455040 0.874000
vt 0.455040 0.827125
vt 0.451667 0.827125
vt 0.444922 0.827125
vt 0.448295 0.827125
vt 0.414567 0.827125
vt 0.411194 0.827125
vt 0.404448 0.827125
vt 0.407821 0.827125
vt 0.407821 0.874000
vt 0.407821 0.886993
vt 0.404448 0.886993
vt 0.404448 0.874000
vt 0.407821 0.933868
vt 0.404448 0.933868
vt 0.448295 0.827125
vt 0.444922 0.827125
vt 0.451667 0.827125
vt 0.455040 0.827125
vt 0.455040 0.874000
vt 0.455040 0.886993
vt 0.451667 0.886993
vt 0.451667 0.874000
vt 0.455040 0.933868
vt 0.451667 0.933868
vt 0.411194 0.920875
vt 0.463472 0.911746
vt 0.463472 0.874000
vt 0.463472 0.842750
vt 0.458413 0.833654
vt 0.396016 0.958621
vt 0.399389 0.965118
vt 0.411194 0.911780
vt 0.407821 0.905283
vt 0.399389 0.918243
vt 0.401076 0.864904
vt 0.401076 0.864904
vt 0.399389 0.918243
vt 0.399389 0.965118
vt 0.396016 0.958621
vt 0.396016 0.842750
vt 0.401076 0.833654
vt 0.396016 0.911746
vt 0.396016 0.874000
vt 0.458413 0.833654
vt 0.463472 0.842750
vt 0.463472 0.874000
vt 0.463472 0.911746
vt 0.460099 0.918243
vt 0.458413 0.864904
vt 0.448295 0.911780
vt 0.451667 0.905283
vt 0.463472 0.958621
vt 0.460099 0.965118
vt 0.270342 0.876632
vt 0.270342 0.889625
vt 0.270342 0.889625
vt 0.270342 0.876632
vt 0.270342 0.861007
vt 0.270342 0.874000
vt 0.276076 0.861007
vt 0.276076 0.848014
vt 0.276076 0.845382
vt 0.276076 0.832389
vt 0.282821 0.832389
vt 0.282821 0.845382
vt 0.276076 0.848014
vt 0.276076 0.861007
vt 0.270342 0.874000
vt 0.270342 0.861007
vt 0.270342 0.829757
vt 0.276076 0.816764
vt 0.276076 0.816764
vt 0.270342 0.829757
vt 0.333413 0.845382
vt 0.333413 0.832389
vt 0.326667 0.832389
vt 0.326667 0.845382
vt 0.333413 0.848014
vt 0.333413 0.861007
vt 0.339147 0.874000
vt 0.339147 0.861007
vt 0.339147 0.876632
vt 0.339147 0.889625
vt 0.339147 0.889625
vt 0.339147 0.876632
vt 0.339147 0.861007
vt 0.339147 0.874000
vt 0.333413 0.861007
vt 0.333413 0.848014
vt 0.333413 0.816764
vt 0.339147 0.829757
vt 0.339147 0.829757
vt 0.333413 0.816764
vt 0.326667 0.816764
vt 0.326667 0.829757
vt 0.326667 0.829757
vt 0.326667 0.816764
vt 0.333413 0.832389
vt 0.333413 0.845382
vt 0.326667 0.845382
vt 0.326667 0.832389
vt 0.326667 0.861007
vt 0.326667 0.861007
vt 0.333413 0.801139
vt 0.333413 0.801139
vt 0.326667 0.801139
vt 0.326667 0.801139
vt 0.282821 0.816764
vt 0.282821 0.829757
vt 0.282821 0.829757
vt 0.282821 0.816764
vt 0.276076 0.801139
vt 0.276076 0.801139
vt 0.282821 0.801139
vt 0.282821 0.801139
vt 0.282821 0.861007
vt 0.282821 0.861007
vt 0.276076 0.832389
vt 0.276076 0.845382
vt 0.282821 0.845382
vt 0.282821 0.832389
vt 0.411194 0.911780
vt 0.448295 0.911780
vn -1.0000 0.0000 0.0000
vn 0.0000 0.0000 -1.0000
vn 1.0000 0.0000 -0.0000
vn 0.0000 0.0000 1.0000
vn 0.0000 0.8944 0.4472
vn -0.1089 -0.8710 0.4791
vn -0.6585 0.0000 0.7526
vn 0.0151 -0.9061 0.4228
vn -0.1961 0.7845 0.5884
vn 0.1089 -0.8710 0.4791
vn -0.6108 0.7082 -0.3541
vn 0.1961 0.7845 -0.5884
vn 0.5841 0.2290 0.7787
vn -0.1089 -0.8710 -0.4791
vn 0.1089 -0.8710 -0.4791
vn -0.0000 0.8944 -0.4472
vn 0.4975 -0.7107 0.4975
vn 0.4975 -0.7107 -0.4975
vn 0.0000 -1.0000 0.0000
vn 0.0000 1.0000 0.0000
vn -0.4975 -0.7107 -0.4975
vn -0.4975 -0.7107 0.4975
vn 0.7071 0.7071 -0.0000
vn -0.7071 0.7071 -0.0000
vn 0.5547 0.0000 0.8321
vn -0.5547 0.0000 0.8321
vn 0.5547 0.0000 -0.8321
vn -0.5547 0.0000 -0.8321
vn -0.5547 0.0000 -0.8320
vn -0.6585 0.0000 -0.7526
vn 0.0151 -0.9061 -0.4228
vn -0.6108 0.7082 0.3541
vn 0.5841 0.2290 -0.7787
vn -0.5841 0.2290 -0.7787
vn -0.0000 0.2822 -0.9594
vn 0.6108 0.7082 0.3541
vn -0.0151 -0.9061 0.4228
vn 0.0000 -0.9062 0.4229
vn 0.6585 0.0000 0.7526
vn -0.0151 -0.9061 -0.4228
vn -0.0000 -0.9062 -0.4229
vn 0.6585 0.0000 -0.7526
vn -0.5841 0.2290 0.7787
vn 0.0000 0.2822 0.9594
vn 0.6108 0.7082 -0.3541
vn -0.8619 0.0000 0.5070
vn 0.8619 0.0000 0.5070
vn 0.0000 -0.8619 0.5070
vn 0.0000 0.8619 -0.5070
vn -0.8619 0.0000 -0.5070
vn 0.8619 0.0000 -0.5070
vn 0.0000 -0.8619 -0.5070
vn 0.0000 0.8619 0.5070
vn -0.1961 0.7845 -0.5884
vn 0.1961 0.7845 0.5884
usemtl spacebits_texture
s off
f 13/1/1 2/2/1 3/3/1 14/4/1
f 14/4/2 3/3/2 6/5/2 15/6/2
f 15/6/3 6/5/3 5/7/3 16/8/3
f 16/8/4 5/7/4 2/2/4 13/1/4
f 17/9/3 8/10/3 9/11/3 18/12/3
f 18/12/4 9/11/4 12/13/4 19/14/4
f 19/14/1 12/13/1 11/15/1 20/16/1
f 20/16/2 11/15/2 8/10/2 17/9/2
f 13/1/1 1/17/1 21/18/1
f 4/19/3 15/6/3 16/8/3
f 1/17/1 13/1/1 14/4/1
f 10/20/1 19/14/1 20/16/1
f 18/21/5 19/22/5 26/23/5
f 7/24/3 17/9/3 18/12/3
f 22/25/4 25/26/4 21/18/4
f 23/27/4 26/28/4 24/29/4
f 1/30/6 4/31/6 22/32/6 21/33/6
f 7/24/3 18/12/3 23/27/3
f 104/34/7 106/35/7 25/26/7 22/25/7
f 101/36/8 104/37/8 22/32/8 4/31/8
f 13/1/9 21/18/9 25/26/9
f 10/38/10 7/39/10 23/40/10 24/41/10
f 39/42/1 28/43/1 29/44/1 40/45/1
f 40/45/2 29/44/2 32/46/2 41/47/2
f 41/47/3 32/46/3 31/48/3 42/49/3
f 42/49/4 31/48/4 28/43/4 39/42/4
f 43/50/3 34/51/3 35/52/3 44/53/3
f 44/53/4 35/52/4 38/54/4 45/55/4
f 45/55/1 38/54/1 37/56/1 46/57/1
f 46/57/2 37/56/2 34/51/2 43/50/2
f 30/58/3 41/47/3 42/49/3
f 112/59/11 114/60/11 51/61/11 41/62/11
f 27/63/1 39/42/1 40/45/1
f 43/50/12 49/64/12 52/65/12
f 36/66/1 45/55/1 46/57/1
f 62/67/1 45/55/1 36/66/1 56/68/1
f 33/69/3 43/50/3 44/53/3
f 47/70/2 51/71/2 48/72/2
f 50/73/2 52/65/2 49/64/2
f 43/50/3 33/69/3 49/64/3
f 109/74/13 112/75/13 41/47/13 30/58/13
f 30/76/14 27/77/14 47/78/14 48/79/14
f 33/80/15 36/81/15 50/82/15 49/83/15
f 40/84/16 41/62/16 51/61/16
f 27/63/1 40/45/1 47/70/1
f 59/85/3 54/86/3 55/87/3 60/88/3
f 55/87/17 58/89/17 61/90/17
f 61/91/1 58/92/1 57/93/1 62/94/1
f 62/67/18 57/95/18 54/86/18
f 56/96/19 36/81/19 33/80/19 53/97/19
f 60/88/3 17/9/3 7/24/3 53/98/3
f 56/68/1 61/90/1 62/67/1
f 70/99/1 39/42/1 27/63/1 63/100/1
f 53/98/3 59/85/3 60/88/3
f 59/85/20 44/53/20 45/55/20 62/67/20
f 53/98/3 33/69/3 44/53/3 59/85/3
f 53/97/19 7/39/19 10/38/19 56/96/19
f 61/90/20 20/16/20 17/9/20 60/88/20
f 56/68/1 10/20/1 20/16/1 61/90/1
f 69/101/1 64/102/1 65/103/1 70/99/1
f 65/103/21 68/104/21 71/105/21
f 71/106/3 68/107/3 67/108/3 72/109/3
f 72/110/22 67/111/22 64/102/22
f 69/101/20 14/4/20 15/6/20 72/110/20
f 66/112/3 71/105/3 72/110/3
f 63/100/1 69/101/1 70/99/1
f 71/105/20 42/49/20 39/42/20 70/99/20
f 66/112/3 30/58/3 42/49/3 71/105/3
f 15/6/3 4/19/3 66/112/3 72/110/3
f 63/113/19 27/77/19 30/76/19 66/114/19
f 63/100/1 1/17/1 14/4/1 69/101/1
f 66/114/19 4/31/19 1/30/19 63/113/19
f 32/46/2 29/44/2 78/115/2
f 55/116/23 82/117/23 75/118/23 8/119/23
f 65/120/24 84/121/24 77/122/24 28/123/24
f 83/124/24 64/125/24 3/126/24 74/127/24
f 96/128/20 98/129/20 78/130/20 77/122/20
f 12/13/4 9/11/4 76/131/4
f 93/132/25 96/133/25 77/134/25 31/48/25
f 88/135/20 90/136/20 74/127/20 73/137/20
f 85/138/26 88/139/26 73/140/26 5/7/26
f 57/95/1 81/141/1 80/142/1 38/54/1
f 75/118/23 76/143/23 9/144/23 8/119/23
f 84/121/20 83/124/20 82/117/20 81/145/20
f 81/145/23 54/146/23 35/147/23 80/148/23
f 34/51/2 37/56/2 79/149/2
f 2/2/4 5/7/4 73/140/4
f 83/124/24 84/121/24 65/120/24 64/125/24
f 81/145/23 82/117/23 55/116/23 54/146/23
f 77/122/24 78/130/24 29/150/24 28/123/24
f 79/151/23 80/148/23 35/147/23 34/152/23
f 67/111/3 83/153/3 74/154/3 6/5/3
f 68/104/2 84/155/2 81/141/2 57/95/2
f 54/156/19 57/157/19 38/158/19 35/159/19
f 82/160/1 58/89/1 11/15/1 75/161/1
f 58/162/19 55/163/19 8/164/19 11/165/19
f 64/166/19 67/167/19 6/168/19 3/169/19
f 84/155/3 68/104/3 31/48/3 77/134/3
f 68/170/19 65/171/19 28/172/19 31/173/19
f 83/153/4 67/111/4 58/89/4 82/160/4
f 67/167/19 68/170/19 57/157/19 58/162/19
f 90/174/27 92/175/27 6/5/27 74/154/27
f 92/176/19 85/177/19 5/178/19 6/179/19
f 98/180/28 100/181/28 32/46/28 78/115/28
f 100/182/19 93/183/19 31/184/19 32/185/19
f 11/186/19 12/187/19 86/188/19 91/189/19
f 91/189/19 86/188/19 85/177/19 92/176/19
f 75/161/29 11/15/29 91/190/29 89/191/29
f 89/191/2 91/190/2 92/175/2 90/174/2
f 12/13/25 76/131/25 87/192/25 86/193/25
f 86/193/4 87/192/4 88/139/4 85/138/4
f 76/143/20 75/118/20 89/194/20 87/195/20
f 87/195/20 89/194/20 90/136/20 88/135/20
f 37/196/19 38/197/19 94/198/19 99/199/19
f 99/199/19 94/198/19 93/183/19 100/182/19
f 79/149/27 37/56/27 99/200/27 97/201/27
f 97/201/2 99/200/2 100/181/2 98/180/2
f 38/54/26 80/142/26 95/202/26 94/203/26
f 94/203/4 95/202/4 96/133/4 93/132/4
f 80/148/20 79/151/20 97/204/20 95/205/20
f 95/205/20 97/204/20 98/129/20 96/128/20
f 73/137/24 74/127/24 3/126/24 2/206/24
f 114/207/30 116/208/30 48/72/30 51/71/30
f 116/209/31 109/210/31 30/76/31 48/79/31
f 106/211/32 108/212/32 16/213/32 25/214/32
f 108/215/33 101/216/33 4/19/33 16/8/33
f 19/14/34 10/20/34 102/217/34 107/218/34
f 107/218/35 102/217/35 101/216/35 108/215/35
f 26/23/36 19/22/36 107/219/36 105/220/36
f 105/220/5 107/219/5 108/212/5 106/211/5
f 10/38/37 24/41/37 103/221/37 102/222/37
f 102/222/38 103/221/38 104/37/38 101/36/38
f 24/29/39 26/28/39 105/223/39 103/224/39
f 103/224/4 105/223/4 106/35/4 104/34/4
f 50/82/40 36/81/40 110/225/40 115/226/40
f 115/226/41 110/225/41 109/210/41 116/209/41
f 52/65/42 50/73/42 115/227/42 113/228/42
f 113/228/2 115/227/2 116/208/2 114/207/2
f 36/66/43 46/57/43 111/229/43 110/230/43
f 110/230/44 111/229/44 112/75/44 109/74/44
f 46/231/45 52/232/45 113/233/45 111/234/45
f 111/234/16 113/233/16 114/60/16 112/59/16
f 117/235/4 118/236/4 120/237/4 119/238/4
f 119/239/46 120/240/46 124/241/46 123/242/46
f 122/243/3 121/244/3 137/245/3 138/246/3
f 121/247/47 122/248/47 118/249/47 117/250/47
f 119/251/48 123/252/48 121/253/48 117/254/48
f 124/241/49 120/240/49 118/249/49 122/248/49
f 128/255/1 127/256/1 135/257/1 136/258/1
f 127/259/50 128/260/50 132/261/50 131/262/50
f 131/263/2 132/264/2 130/265/2 129/266/2
f 129/267/51 130/268/51 126/269/51 125/270/51
f 127/271/52 131/272/52 129/273/52 125/274/52
f 132/261/53 128/260/53 126/269/53 130/268/53
f 133/275/4 134/276/4 136/277/4 135/278/4
f 125/279/3 126/280/3 134/281/3 133/282/3
f 126/269/20 128/260/20 136/283/20 134/284/20
f 127/285/19 125/286/19 133/287/19 135/288/19
f 139/289/2 140/290/2 138/291/2 137/292/2
f 121/293/19 123/294/19 139/295/19 137/296/19
f 124/241/20 122/248/20 138/297/20 140/298/20
f 123/299/1 124/300/1 140/301/1 139/302/1
f 16/213/5 13/303/5 25/214/5
f 47/70/54 40/45/54 51/71/54
f 46/231/16 43/304/16 52/232/16
f 23/27/55 18/12/55 26/28/55
f 60/88/4 55/87/4 61/90/4
f 59/85/2 62/67/2 54/86/2
f 69/101/4 72/110/4 64/102/4
f 70/99/2 65/103/2 71/105/2
