# Blender v3.4.1 OBJ File: 'SpaceBits_export_2.blend'
# www.blender.org
mtllib space_farm_large_sprinkler_sprinkler.mtl
o sprinkler_Cube.277
v -0.099907 0.350000 0.100023
v -0.146186 0.376341 -0.086561
v -0.149907 0.450000 0.050023
v -0.169354 0.422675 -0.063394
v -0.758670 0.350000 0.100023
v -0.800000 0.399508 0.038786
v -0.800000 0.399508 -0.038740
v -0.712390 0.376341 -0.086561
v -0.708670 0.450000 0.050023
v -0.689223 0.422675 -0.063394
v 0.099907 0.350000 -0.100023
v 0.146186 0.376341 0.086561
v 0.149907 0.450000 -0.050023
v 0.169354 0.422675 0.063394
v 0.758670 0.350000 -0.100023
v 0.800000 0.390000 -0.038785
v 0.800000 0.390000 0.038740
v 0.712390 0.376341 0.086561
v 0.708670 0.450000 -0.050023
v 0.689223 0.422675 0.063394
v -0.074953 0.500000 -0.049977
v -0.025524 0.450000 -0.120449
v -0.049953 0.449508 0.100023
v -0.074953 0.500000 0.050023
v 0.074953 0.500000 0.049977
v 0.049953 0.449508 0.099977
v 0.025514 0.450000 -0.120473
v 0.074953 0.500000 -0.050023
v -0.149907 0.450000 -0.049977
v -0.099907 0.350000 -0.099977
v -0.708670 0.450000 -0.049977
v -0.758670 0.350000 -0.099977
v 0.149907 0.450000 0.049977
v 0.099907 0.350000 0.099977
v 0.708670 0.450000 0.049977
v 0.758669 0.350000 0.099977
v -0.157770 0.379508 -0.047549
v -0.700806 0.379508 -0.047549
v 0.157770 0.379508 0.047549
v 0.700806 0.379508 0.047549
v -0.037486 0.349508 -0.169977
v 0.037444 0.349508 -0.170023
v -0.020345 0.450000 -0.149527
v 0.020317 0.450000 -0.149552
v -0.049953 0.450000 -0.099977
v 0.049953 0.450000 -0.100023
v -0.037486 0.450000 -0.169977
v 0.037444 0.450000 -0.170023
v -0.013183 0.443608 -0.134988
v 0.013164 0.443608 -0.135012
v -0.099907 0.250000 -0.099977
v 0.099907 0.250000 -0.100023
v -0.037486 0.250000 -0.169977
v 0.037444 0.250000 -0.170023
vt 0.409065 0.840084
vt 0.403029 0.828013
vt 0.409065 0.840084
vt 0.149522 0.821022
vt 0.165475 0.834049
vt 0.185674 0.834049
vt 0.201627 0.821022
vt 0.188601 0.878325
vt 0.185674 0.865299
vt 0.165475 0.865299
vt 0.162548 0.878325
vt 0.162560 0.878325
vt 0.188613 0.878325
vt 0.188613 0.891352
vt 0.162560 0.891352
vt 0.165475 0.849674
vt 0.149522 0.836647
vt 0.162548 0.862700
vt 0.162548 0.847075
vt 0.162548 0.847075
vt 0.149522 0.821022
vt 0.188601 0.893950
vt 0.188601 0.893950
vt 0.162548 0.893950
vt 0.162548 0.893950
vt 0.403029 0.828013
vt 0.403029 0.828013
vt 0.403029 0.828013
vt 0.201640 0.821022
vt 0.185685 0.834049
vt 0.165487 0.834049
vt 0.149533 0.821022
vt 0.162559 0.878325
vt 0.165487 0.865299
vt 0.185685 0.865299
vt 0.188613 0.878325
vt 0.201640 0.821022
vt 0.149533 0.821022
vt 0.201627 0.821022
vt 0.185685 0.849674
vt 0.201640 0.836647
vt 0.188613 0.862700
vt 0.188613 0.847075
vt 0.188613 0.847075
vt 0.162560 0.893950
vt 0.162559 0.893950
vt 0.188613 0.893950
vt 0.188613 0.893950
vt 0.188601 0.878325
vt 0.162548 0.878325
vt 0.162548 0.891352
vt 0.188601 0.891352
vt 0.149522 0.836647
vt 0.149533 0.836647
vt 0.149533 0.862700
vt 0.149522 0.862700
vt 0.149533 0.878325
vt 0.149522 0.878325
vt 0.162560 0.906977
vt 0.188613 0.906977
vt 0.188601 0.906977
vt 0.162548 0.906977
vt 0.201640 0.878325
vt 0.201627 0.878325
vt 0.326627 0.852272
vt 0.326627 0.852272
vt 0.326627 0.852272
vt 0.326627 0.852272
vt 0.149522 0.852272
vt 0.201640 0.852272
vt 0.201627 0.852272
vt 0.149533 0.852272
vt 0.149533 0.836647
vt 0.165487 0.849674
vt 0.162559 0.862700
vt 0.201627 0.836647
vt 0.185674 0.849674
vt 0.188601 0.862700
vt 0.198132 0.828013
vt 0.192096 0.840084
vt 0.188601 0.847075
vt 0.192096 0.840084
vt 0.198132 0.828013
vt 0.188601 0.847075
vt 0.153029 0.828013
vt 0.159065 0.840084
vt 0.162560 0.847075
vt 0.159064 0.840084
vt 0.153029 0.828013
vt 0.162559 0.847075
vt 0.448132 0.828013
vt 0.448132 0.828013
vt 0.448132 0.828013
vt 0.448132 0.828013
vt 0.442096 0.840084
vt 0.442096 0.840084
vt 0.409064 0.808834
vt 0.409065 0.808834
vt 0.409065 0.808834
vt 0.409064 0.808834
vt 0.409064 0.840084
vt 0.442096 0.808834
vt 0.442096 0.808834
vt 0.442096 0.808834
vt 0.442096 0.808834
vt 0.442096 0.840084
vt 0.326640 0.836647
vt 0.326627 0.836647
vt 0.326627 0.862700
vt 0.326640 0.862700
vt 0.326627 0.878325
vt 0.326627 0.878325
vt 0.411822 0.878325
vt 0.411822 0.878325
vt 0.411822 0.878325
vt 0.326640 0.852272
vt 0.326640 0.852272
vt 0.326640 0.878325
vt 0.326640 0.878325
vt 0.326637 0.878325
vt 0.326630 0.878325
vt 0.326630 0.878325
vt 0.326636 0.878325
vt 0.411829 0.878325
vt 0.411829 0.878325
vt 0.411828 0.878325
vt 0.326640 0.821022
vt 0.326627 0.821022
vt 0.326627 0.821022
vt 0.326640 0.821022
vt 0.326640 0.836647
vt 0.326627 0.836647
vt 0.326640 0.852272
vt 0.326640 0.852272
vt 0.326640 0.821022
vt 0.326627 0.821022
vn 0.9107 -0.3337 0.2433
vn -0.7677 -0.6409 -0.0000
vn -0.2410 0.9705 0.0000
vn -0.4838 0.8752 0.0000
vn 0.2899 0.9571 -0.0000
vn 0.2900 0.9570 0.0000
vn -0.3998 0.5620 0.7241
vn -0.1901 0.5134 0.8368
vn -0.1159 0.4900 0.8640
vn -0.1950 0.4205 0.8861
vn -0.1385 0.2345 0.9622
vn -0.2899 0.9571 0.0000
vn -0.0000 0.9967 0.0809
vn 0.2409 -0.9705 0.0000
vn 0.6954 -0.7186 0.0000
vn 0.2352 0.8488 0.4734
vn 0.5467 0.7710 0.3266
vn 0.5467 0.7710 -0.3266
vn 0.2362 0.8495 -0.4718
vn 0.0000 -1.0000 -0.0000
vn 0.2281 0.5243 -0.8204
vn 0.1957 0.4206 -0.8859
vn 0.2085 0.3520 -0.9125
vn -0.2899 0.9570 0.0000
vn 0.1400 0.2352 0.9618
vn 0.1525 0.3784 0.9130
vn -0.1521 0.3784 0.9131
vn 0.2058 0.6353 0.7444
vn -0.2056 0.6353 0.7444
vn 0.2068 0.6382 -0.7416
vn 0.2233 0.5562 -0.8005
vn -0.2235 0.5562 -0.8004
vn -0.2070 0.6381 -0.7416
vn -0.1974 0.4179 -0.8868
vn 0.1967 0.4178 0.8870
vn -0.8008 0.0849 -0.5929
vn -0.7464 0.0000 -0.6655
vn -0.2103 0.3530 -0.9117
vn 0.2264 0.5255 0.8202
vn -0.1883 0.5146 -0.8365
vn -0.3998 0.5620 -0.7241
vn -0.1135 0.4868 -0.8661
vn -0.0033 0.4492 -0.8934
vn -0.0033 0.4426 -0.8967
vn 0.0033 0.4426 -0.8967
vn 0.0033 0.4492 -0.8934
vn 0.0033 0.4492 0.8934
vn 0.0033 0.4426 0.8967
vn -0.0033 0.4426 0.8967
vn -0.0033 0.4492 0.8934
vn -0.0000 0.9967 -0.0809
vn -0.9107 -0.3337 -0.2433
vn -0.0000 -0.3446 0.9388
vn -0.9107 -0.3337 0.2433
vn -0.0000 -0.3446 -0.9388
vn 0.9107 -0.3337 -0.2433
vn -0.0006 0.0000 -1.0000
vn -0.8835 0.4413 -0.1573
vn -0.8753 0.2617 -0.4066
vn 0.5456 0.8324 0.0972
vn 0.8006 0.0849 -0.5932
vn 0.7461 0.0000 -0.6658
vn 0.8751 0.2616 -0.4071
vn 0.8834 0.4413 -0.1579
vn 0.0000 1.0000 0.0000
vn -0.0002 0.9154 -0.4025
vn -0.5456 0.8324 0.0975
vn 0.0003 0.9154 0.4025
vn 0.0002 0.0000 1.0000
usemtl spacebits_texture
s 1
f 14/1/1 12/2/1 39/3/1
f 5/4/2 6/5/2 7/6/2 32/7/2
f 31/8/3 7/9/4 6/10/4 9/11/3
f 33/12/5 13/13/5 28/14/6 25/15/5
f 6/16/7 5/17/8 9/18/9
f 3/19/10 9/20/9 5/4/8 1/21/11
f 29/22/12 31/23/3 9/24/3 3/25/12
f 12/2/13 18/26/13 40/27/13 39/28/13
f 15/29/14 16/30/15 17/31/15 36/32/14
f 35/33/16 17/34/17 16/35/18 19/36/19
f 11/37/20 34/38/20 1/21/20 30/39/20
f 16/40/18 15/41/21 19/42/19
f 13/43/22 19/44/19 15/29/21 11/37/23
f 33/45/5 35/46/16 19/47/19 13/48/5
f 29/49/12 3/50/12 24/51/24 21/52/12
f 1/53/11 34/54/25 26/55/26 23/56/27
f 26/57/26 25/15/28 24/51/29 23/58/27
f 25/59/5 28/60/6 21/61/12 24/62/24
f 28/14/30 46/63/31 45/64/32 21/52/33
f 29/49/34 21/52/33 45/64/32
f 33/12/35 25/15/28 26/57/26
f 30/65/36 41/66/37 53/67/37 51/68/37
f 3/50/10 1/69/11 23/58/27
f 13/13/22 11/70/23 46/63/31
f 30/71/38 29/49/34 45/64/32
f 28/14/30 13/13/22 46/63/31
f 34/72/25 33/12/35 26/57/26
f 24/51/29 3/50/10 23/58/27
f 11/37/20 15/29/14 36/32/14 34/38/20
f 1/21/20 5/4/20 32/7/20 30/39/20
f 36/73/39 17/74/17 35/75/16
f 32/76/40 7/77/41 31/78/42
f 2/79/43 4/80/44 29/81/34 30/39/38
f 10/82/45 8/83/46 32/7/40 31/84/42
f 8/83/46 2/79/43 30/39/38 32/7/40
f 4/80/44 10/82/45 31/84/42 29/81/34
f 12/85/47 14/86/48 33/87/35 34/38/25
f 20/88/49 18/89/50 36/32/39 35/90/16
f 18/89/50 12/85/47 34/38/25 36/32/39
f 14/86/48 20/88/49 35/90/16 33/87/35
f 2/91/51 8/92/51 38/93/51 37/94/51
f 4/95/52 2/91/52 37/96/52
f 20/97/53 14/98/53 39/99/53 40/100/53
f 18/26/54 20/101/54 40/27/54
f 10/102/55 4/103/55 37/104/55 38/105/55
f 8/92/56 10/106/56 38/93/56
f 42/107/57 41/108/57 47/109/57 48/110/57
f 30/65/36 45/111/58 47/112/59
f 43/113/60 22/114/60 49/115/60
f 11/116/61 42/117/62 48/118/63
f 46/119/64 11/116/61 48/118/63
f 41/66/37 30/65/36 47/112/59
f 27/120/65 22/121/65 45/111/65 46/119/65
f 43/122/65 44/123/65 48/118/65 47/112/65
f 22/121/65 43/122/65 47/112/65 45/111/65
f 44/123/65 27/120/65 46/119/65 48/118/65
f 22/114/66 27/124/66 50/125/66 49/115/66
f 27/124/67 44/126/67 50/125/67
f 44/126/68 43/113/68 49/115/68 50/125/68
f 52/127/20 51/128/20 53/129/20 54/130/20
f 41/108/57 42/107/57 54/131/57 53/132/57
f 42/117/62 11/116/61 52/133/62 54/134/62
f 11/135/69 30/136/69 51/128/69 52/127/69
