# Blender v3.4.1 OBJ File: 'SpaceBits_export_2.blend'
# www.blender.org
mtllib water_storage.mtl
o water_storage_Cylinder.670
v -0.414216 0.050000 1.000000
v -0.349780 0.950000 0.844445
v -1.000000 0.050000 0.414214
v -0.844443 0.950000 0.349781
v -1.000000 0.050000 -0.414213
v -0.844443 0.950000 -0.349780
v -0.414216 0.050000 -1.000000
v -0.349780 0.950000 -0.844444
v 0.414216 0.050000 -1.000000
v 0.349779 0.950000 -0.844444
v 1.000000 0.050000 -0.414214
v 0.844443 0.950000 -0.349781
v 1.000000 0.050000 0.414212
v 0.844443 0.950000 0.349780
v 0.414216 0.050000 1.000000
v 0.349780 0.950000 0.844444
v -0.391201 1.000000 0.944445
v -0.944443 1.000000 0.391202
v -0.944443 1.000000 -0.391201
v -0.391202 1.000000 -0.944444
v 0.391201 1.000000 -0.944444
v 0.944442 1.000000 -0.391202
v 0.944443 1.000000 0.391201
v 0.391201 1.000000 0.944444
v -0.321069 1.000000 0.775132
v -0.675130 1.000000 0.221070
v -0.675130 1.000000 -0.221070
v -0.321070 1.000000 -0.775132
v 0.321069 1.000000 -0.775132
v 0.675130 1.000000 -0.221070
v 0.675130 1.000000 0.221070
v 0.321070 1.000000 0.775132
v -0.944443 0.000000 0.391202
v -0.391201 0.000000 0.944445
v -0.944443 0.000000 -0.391201
v -0.391202 0.000000 -0.944444
v 0.391201 0.000000 -0.944444
v 0.944442 0.000000 -0.391202
v 0.944443 0.000000 0.391201
v 0.391201 0.000000 0.944444
v 0.521070 1.000000 0.221070
v 0.521070 1.000000 -0.221070
v -0.521070 1.000000 -0.221070
v -0.521069 1.000000 0.221070
v -0.775130 1.000000 0.321070
v -0.775130 1.000000 -0.321070
v 0.775130 1.000000 -0.321070
v 0.775131 1.000000 0.321070
v -0.215802 1.000000 0.221070
v -0.215802 1.000000 -0.221070
v 0.215802 1.000000 -0.221070
v 0.215802 1.000000 0.221070
v -0.675130 0.950000 0.110535
v -0.675130 0.950000 -0.110535
v 0.675130 0.950000 -0.110535
v 0.675130 0.950000 0.110535
v -0.521069 0.950000 0.110535
v -0.521070 0.950000 -0.110535
v 0.521070 0.950000 -0.110535
v 0.521070 0.950000 0.110535
v 0.315802 1.000000 -0.321070
v -0.315802 1.000000 -0.321070
v 0.315802 1.000000 0.321070
v -0.315802 1.000000 0.321070
v 0.215802 0.950000 -0.111070
v -0.215802 0.950000 -0.111070
v 0.215802 0.950000 0.111070
v -0.215802 0.950000 0.111070
v -1.000000 0.950000 0.414214
v -0.414216 0.950000 1.000000
v -0.414216 0.950000 -1.000000
v -1.000000 0.950000 -0.414213
v 1.000000 0.950000 -0.414214
v 0.414216 0.950000 -1.000000
v 0.414216 0.950000 1.000000
v 1.000000 0.950000 0.414212
v 0.414216 0.299998 1.000000
v -0.414216 0.299998 1.000000
v -1.000000 0.299998 0.414214
v -1.000000 0.299998 -0.414213
v -0.414216 0.299998 -1.000000
v 0.414216 0.299998 -1.000000
v 1.000000 0.299998 -0.414214
v 1.000000 0.299998 0.414212
v -0.050000 1.000000 -0.300000
v -0.100000 1.000000 -0.350000
v -0.039645 1.050000 -0.360355
v 0.000006 1.020000 -0.494824
v -0.100000 1.000000 -0.550000
v -0.050000 1.000000 -0.600000
v -0.039645 1.050000 -0.539645
v 0.000006 1.020000 -0.405179
v 0.100000 1.000000 -0.350000
v 0.050000 1.000000 -0.300000
v 0.039645 1.050000 -0.360355
v 0.050000 1.000000 -0.600000
v 0.100000 1.000000 -0.550000
v 0.039645 1.050000 -0.539645
v -0.050000 1.050000 -0.300000
v -0.100000 1.050000 -0.350000
v -0.100000 1.050000 -0.550000
v -0.050000 1.050000 -0.600000
v 0.050000 1.050000 -0.600000
v 0.100000 1.050000 -0.550000
v 0.100000 1.050000 -0.350000
v 0.050000 1.050000 -0.300000
v 0.199978 1.000000 0.530008
v 0.149978 1.000000 0.580008
v 0.139622 1.050000 0.519653
v -0.094846 1.020000 0.450002
v -0.150022 1.000000 0.580008
v -0.200022 1.000000 0.530008
v -0.139667 1.050000 0.519653
v 0.094798 1.020000 0.450002
v 0.149978 1.000000 0.320008
v 0.199978 1.000000 0.370008
v 0.139622 1.050000 0.380364
v -0.200022 1.000000 0.370008
v -0.150022 1.000000 0.320008
v -0.139667 1.050000 0.380364
v 0.199978 1.050000 0.530008
v 0.149978 1.050000 0.580008
v -0.150022 1.050000 0.580008
v -0.200022 1.050000 0.530008
v -0.200022 1.050000 0.370008
v -0.150022 1.050000 0.320008
v 0.149978 1.050000 0.320008
v 0.199978 1.050000 0.370008
v -0.100000 -0.000001 1.050000
v -0.100000 0.949999 1.050000
v -0.100000 -0.000001 1.000000
v -0.100000 0.949999 1.000000
v -0.050000 -0.000001 1.050000
v -0.050000 0.949999 1.050000
v -0.050000 -0.000001 1.000000
v -0.050000 0.949999 1.000000
v -0.000000 -0.000001 1.050000
v -0.000000 0.949999 1.050000
v -0.000000 -0.000001 1.000000
v -0.000000 0.949999 1.000000
v 0.100000 -0.000001 1.050000
v 0.100000 0.949999 1.050000
v 0.100000 -0.000001 1.000000
v 0.100000 0.949999 1.000000
v -0.100000 1.049999 0.944000
v -0.100000 0.999999 0.944000
v -0.050000 1.049999 0.944000
v -0.050000 0.999999 0.944000
v -0.000000 1.049999 0.944000
v -0.000000 0.999999 0.944000
v 0.100000 1.049999 0.944000
v 0.100000 0.999999 0.944000
v -0.100000 1.050000 0.580000
v -0.100000 1.000000 0.580000
v -0.050000 1.050000 0.580000
v -0.050000 1.000000 0.580000
v -0.000000 1.050000 0.580000
v -0.000000 1.000000 0.580000
v 0.100000 1.050000 0.580000
v 0.100000 1.000000 0.580000
v -0.000000 0.287499 1.050000
v -0.000000 0.187499 1.050000
v -0.000000 0.237499 1.020000
v -0.000000 0.762499 1.050000
v -0.000000 0.662499 1.050000
v -0.000000 0.712499 1.020000
v -0.000000 0.662499 1.000000
v -0.000000 0.762499 1.000000
v -0.000000 0.712499 1.000000
v -0.000000 0.187499 1.000000
v -0.000000 0.287499 1.000000
v -0.000000 0.237499 1.000000
v 0.100000 0.762499 1.000000
v 0.100000 0.662499 1.000000
v 0.100000 0.712499 1.000000
v 0.100000 0.287499 1.000000
v 0.100000 0.187499 1.000000
v 0.100000 0.237499 1.000000
v 0.100000 0.662499 1.050000
v 0.100000 0.762499 1.050000
v 0.100000 0.712499 1.020000
v 0.100000 0.187499 1.050000
v 0.100000 0.287499 1.050000
v 0.100000 0.237499 1.020000
v -0.100000 0.524999 1.050000
v -0.100000 0.424999 1.050000
v -0.100000 0.474999 1.020000
v -0.100000 0.424999 1.000000
v -0.100000 0.524999 1.000000
v -0.100000 0.474999 1.000000
v -0.050000 0.524999 1.000000
v -0.050000 0.424999 1.000000
v -0.050000 0.474999 1.000000
v -0.050000 0.424999 1.050000
v -0.050000 0.524999 1.050000
v -0.050000 0.474999 1.020000
vt 0.318128 0.917075
vt 0.318128 0.922788
vt 0.306702 0.922788
vt 0.306702 0.917075
vt 0.323840 0.917075
vt 0.323840 0.922788
vt 0.323840 0.922788
vt 0.323840 0.917075
vt 0.307886 0.938413
vt 0.316944 0.938413
vt 0.312415 0.934985
vt 0.300990 0.917075
vt 0.300990 0.922788
vt 0.300990 0.922788
vt 0.300990 0.917075
vt 0.306702 0.917075
vt 0.306702 0.922788
vt 0.318128 0.922788
vt 0.318128 0.917075
vt 0.307886 0.969663
vt 0.300990 0.969663
vt 0.306702 0.969663
vt 0.307886 0.969663
vt 0.306702 0.969663
vt 0.300990 0.969663
vt 0.316944 0.969663
vt 0.323840 0.969663
vt 0.318128 0.969663
vt 0.316944 0.969663
vt 0.318128 0.969663
vt 0.323840 0.969663
vt 0.316944 0.938413
vt 0.307886 0.938413
vt 0.312415 0.934985
vt 0.312415 0.903735
vt 0.312415 0.903735
vt 0.335263 0.917075
vt 0.335263 0.922788
vt 0.335263 0.922788
vt 0.335263 0.917075
vt 0.295274 0.917075
vt 0.295274 0.922788
vt 0.329550 0.922788
vt 0.329550 0.917075
vt 0.328368 0.938413
vt 0.328368 0.938413
vt 0.323246 0.934985
vt 0.329550 0.917075
vt 0.329550 0.922788
vt 0.295274 0.922788
vt 0.295274 0.917075
vt 0.289562 0.917075
vt 0.289562 0.922788
vt 0.289562 0.922788
vt 0.289562 0.917075
vt 0.328368 0.969663
vt 0.329550 0.969663
vt 0.335263 0.969663
vt 0.296458 0.969663
vt 0.289562 0.969663
vt 0.295274 0.969663
vt 0.296458 0.969663
vt 0.295274 0.969663
vt 0.289562 0.969663
vt 0.328368 0.969663
vt 0.335263 0.969663
vt 0.329550 0.969663
vt 0.296458 0.938413
vt 0.296458 0.938413
vt 0.301578 0.934985
vt 0.301578 0.903735
vt 0.323246 0.903735
vt 0.306702 0.818446
vt 0.306702 0.867004
vt 0.300990 0.867004
vt 0.300990 0.818446
vt 0.300990 0.802821
vt 0.300990 0.851379
vt 0.300990 0.851379
vt 0.300990 0.802821
vt 0.306702 0.802821
vt 0.306702 0.802821
vt 0.323840 0.889940
vt 0.323840 0.911362
vt 0.323840 0.911362
vt 0.323840 0.889940
vt 0.323840 0.835669
vt 0.323840 0.878514
vt 0.323840 0.878514
vt 0.323840 0.835669
vt 0.312414 0.889940
vt 0.312414 0.911362
vt 0.312414 0.911362
vt 0.312414 0.889940
vt 0.312414 0.802821
vt 0.323840 0.802821
vt 0.323840 0.802821
vt 0.312414 0.802821
vt 0.300990 0.969663
vt 0.306702 0.969663
vt 0.306702 0.969663
vt 0.300990 0.969663
vt 0.323840 0.917075
vt 0.323840 0.922788
vt 0.323840 0.938413
vt 0.312414 0.938413
vt 0.312414 0.926987
vt 0.323840 0.926987
vt 0.312414 0.922788
vt 0.312414 0.917075
vt 0.306702 0.917075
vt 0.306702 0.922788
vt 0.306702 0.911362
vt 0.306702 0.911362
vt 0.306702 0.938413
vt 0.300990 0.938413
vt 0.300990 0.926987
vt 0.306702 0.926987
vt 0.300990 0.922788
vt 0.300990 0.917075
vt 0.300990 0.911362
vt 0.300990 0.911362
vt 0.323840 0.917075
vt 0.323840 0.922788
vt 0.312414 0.922788
vt 0.312414 0.917075
vt 0.306702 0.917075
vt 0.306702 0.922788
vt 0.300990 0.922788
vt 0.300990 0.917075
vt 0.312414 0.969663
vt 0.323840 0.969663
vt 0.323840 0.969663
vt 0.312414 0.969663
vt 0.312414 0.835669
vt 0.312414 0.878514
vt 0.312414 0.878514
vt 0.312414 0.835669
vt 0.323840 0.824244
vt 0.323840 0.824244
vt 0.306702 0.878430
vt 0.300990 0.878430
vt 0.323840 0.851294
vt 0.323840 0.894139
vt 0.312414 0.894139
vt 0.312414 0.851294
vt 0.323840 0.818446
vt 0.323840 0.839869
vt 0.312414 0.839869
vt 0.312414 0.818446
vt 0.306702 0.851379
vt 0.306702 0.851379
vt 0.306702 0.862805
vt 0.306702 0.862805
vt 0.300990 0.862805
vt 0.300990 0.862805
vt 0.323840 0.905565
vt 0.312414 0.905565
vt 0.323840 0.820044
vt 0.312414 0.820044
vt 0.312414 0.814332
vt 0.323840 0.814332
vt 0.323840 0.876832
vt 0.312414 0.876832
vt 0.312414 0.871119
vt 0.323840 0.871119
vt 0.323840 0.874315
vt 0.312414 0.874315
vt 0.312414 0.868602
vt 0.323840 0.868602
vt 0.323840 0.931102
vt 0.312414 0.931102
vt 0.312414 0.925389
vt 0.323840 0.925389
vt 0.323840 0.829957
vt 0.323840 0.829957
vt 0.323840 0.884227
vt 0.323840 0.884227
vt 0.312414 0.829957
vt 0.312414 0.829957
vt 0.312414 0.824244
vt 0.312414 0.824244
vt 0.312414 0.884227
vt 0.312414 0.884227
vt 0.306702 0.847180
vt 0.300990 0.847180
vt 0.300990 0.841467
vt 0.306702 0.841467
vt 0.306702 0.903967
vt 0.300990 0.903967
vt 0.300990 0.898254
vt 0.306702 0.898254
vt 0.306702 0.857092
vt 0.306702 0.857092
vt 0.300990 0.857092
vt 0.300990 0.857092
vt 0.951271 0.593107
vt 0.951271 0.654461
vt 0.923729 0.654461
vt 0.923729 0.593107
vt 0.904254 0.593107
vt 0.904254 0.654461
vt 0.904254 0.654461
vt 0.904254 0.593107
vt 0.925871 0.658223
vt 0.909426 0.658224
vt 0.909426 0.658224
vt 0.925871 0.658223
vt 0.970746 0.593107
vt 0.970746 0.654461
vt 0.970746 0.654461
vt 0.970746 0.593107
vt 0.923729 0.593107
vt 0.923729 0.654461
vt 0.951271 0.654461
vt 0.951271 0.593107
vt 0.951271 0.575912
vt 0.970746 0.575912
vt 0.968899 0.572149
vt 0.950506 0.572149
vt 0.970746 0.667394
vt 0.951271 0.667394
vt 0.950506 0.671157
vt 0.968899 0.671157
vt 0.970746 0.575912
vt 0.968899 0.572149
vt 0.970746 0.667394
vt 0.968899 0.671157
vt 0.951271 0.575912
vt 0.950506 0.572149
vt 0.951271 0.667394
vt 0.950506 0.671157
vt 0.923729 0.575912
vt 0.924494 0.572149
vt 0.923729 0.667394
vt 0.924494 0.671157
vt 0.904254 0.575912
vt 0.906102 0.572149
vt 0.904254 0.667394
vt 0.906102 0.671157
vt 0.904254 0.575912
vt 0.906102 0.572149
vt 0.904254 0.667394
vt 0.906102 0.671157
vt 0.923729 0.575912
vt 0.924494 0.572149
vt 0.923729 0.667394
vt 0.924494 0.671157
vt 0.923729 0.601780
vt 0.923729 0.624357
vt 0.951271 0.624357
vt 0.951271 0.601780
vt 0.970746 0.601780
vt 0.970746 0.624357
vt 0.970746 0.624357
vt 0.970746 0.601780
vt 0.951271 0.624357
vt 0.951271 0.601780
vt 0.904254 0.601780
vt 0.904254 0.624357
vt 0.904254 0.601780
vt 0.904254 0.624357
vt 0.923729 0.601780
vt 0.923729 0.624357
vt 0.949129 0.645290
vt 0.965574 0.645290
vt 0.968899 0.645290
vt 0.950506 0.645290
vt 0.965574 0.645290
vt 0.968899 0.645290
vt 0.949129 0.645290
vt 0.950506 0.645290
vt 0.925871 0.645290
vt 0.924494 0.645290
vt 0.909426 0.645290
vt 0.906102 0.645290
vt 0.909426 0.645290
vt 0.906102 0.645290
vt 0.925871 0.645290
vt 0.924494 0.645290
vt 0.909426 0.658224
vt 0.925871 0.658224
vt 0.925871 0.658224
vt 0.909426 0.658224
vt 0.949129 0.658224
vt 0.965574 0.658224
vt 0.965574 0.658224
vt 0.949129 0.658224
vt 0.965574 0.658224
vt 0.949129 0.658224
vt 0.949129 0.658224
vt 0.965574 0.658224
vt 0.906102 0.559216
vt 0.968899 0.559216
vt 0.950506 0.559216
vt 0.924494 0.559216
vt 0.906102 0.559216
vt 0.968899 0.559216
vt 0.924494 0.559216
vt 0.950506 0.559216
vt 0.922250 0.677451
vt 0.909426 0.677451
vt 0.925871 0.677451
vt 0.952751 0.677451
vt 0.949129 0.677451
vt 0.949129 0.677451
vt 0.952751 0.677451
vt 0.965574 0.677451
vt 0.922250 0.677451
vt 0.925871 0.677451
vt 0.918628 0.645290
vt 0.918628 0.645290
vt 0.918628 0.645290
vt 0.918628 0.645290
vt 0.947921 0.645290
vt 0.947921 0.645290
vt 0.947921 0.645290
vt 0.947921 0.645290
vt 0.918628 0.658224
vt 0.913048 0.658224
vt 0.913048 0.658224
vt 0.918628 0.658224
vt 0.909426 0.677451
vt 0.965574 0.677451
vt 0.961952 0.677451
vt 0.961952 0.677451
vt 0.913048 0.677451
vt 0.913048 0.677451
vt 0.956372 0.677451
vt 0.956372 0.677451
vt 0.918628 0.677451
vt 0.918628 0.677451
vt 0.961952 0.671157
vt 0.961952 0.671157
vt 0.956372 0.671157
vt 0.956372 0.671157
vt 0.913048 0.671157
vt 0.918628 0.671157
vt 0.918628 0.671157
vt 0.913048 0.671157
vt 0.913048 0.645290
vt 0.913048 0.645290
vt 0.913048 0.645290
vt 0.913048 0.645290
vt 0.956372 0.658224
vt 0.961952 0.658224
vt 0.961952 0.658224
vt 0.956372 0.658224
vt 0.913048 0.658223
vt 0.918628 0.658224
vt 0.918628 0.658224
vt 0.913048 0.658223
vt 0.956372 0.645290
vt 0.956372 0.645290
vt 0.956372 0.645290
vt 0.956372 0.645290
vt 0.961952 0.645290
vt 0.961952 0.645290
vt 0.961952 0.645290
vt 0.961952 0.645290
vt 0.961952 0.658224
vt 0.956372 0.658224
vt 0.956372 0.658224
vt 0.961952 0.658224
vt 0.947921 0.677451
vt 0.927079 0.677451
vt 0.927079 0.677451
vt 0.947921 0.677451
vt 0.927079 0.671158
vt 0.927079 0.671157
vt 0.947921 0.671157
vt 0.947921 0.671157
vt 0.927079 0.658224
vt 0.947921 0.658224
vt 0.947921 0.658224
vt 0.927079 0.658224
vt 0.947921 0.658224
vt 0.927079 0.658224
vt 0.927079 0.658224
vt 0.947921 0.658224
vt 0.927079 0.645290
vt 0.927079 0.645290
vt 0.927079 0.645290
vt 0.927079 0.645290
vn 0.0000 0.0000 1.0000
vn 1.0000 0.0000 0.0000
vn 0.0000 0.8310 -0.5562
vn -1.0000 0.0000 0.0000
vn 0.0000 0.0000 -1.0000
vn -0.7071 0.0000 0.7071
vn -0.7071 0.0000 -0.7071
vn 0.7071 0.0000 -0.7071
vn 0.7071 0.0000 0.7071
vn 0.0000 1.0000 0.0000
vn 0.0000 0.8310 0.5562
vn -0.6035 0.7974 0.0000
vn 0.6034 0.7975 0.0000
vn -0.5562 0.8310 0.0000
vn 0.5562 0.8310 0.0000
vn 0.0000 0.9184 0.3956
vn 0.0000 0.9184 -0.3956
vn 0.0000 -1.0000 0.0000
vn 0.0000 0.7274 0.6862
vn 0.0000 -0.5145 0.8575
vn 0.0000 0.5145 0.8575
vn 0.2122 0.8321 0.5124
vn 0.5124 0.8321 0.2122
vn -0.4730 -0.7433 0.4730
vn -0.4730 0.7433 0.4730
vn -0.6690 -0.7433 0.0000
vn -0.6690 0.7433 0.0000
vn -0.4730 -0.7433 -0.4730
vn -0.4730 0.7433 -0.4730
vn -0.0000 -0.7433 -0.6690
vn -0.0000 0.7433 -0.6690
vn 0.4730 -0.7433 -0.4730
vn 0.4730 0.7433 -0.4730
vn 0.6690 -0.7433 -0.0000
vn 0.6690 0.7433 -0.0000
vn 0.4730 -0.7433 0.4730
vn 0.4730 0.7433 0.4730
vn 0.0000 -0.7433 0.6690
vn 0.0000 0.7433 0.6690
vn 0.1605 0.9078 -0.3874
vn 0.3874 0.9078 -0.1605
vn 0.3874 0.9078 0.1605
vn 0.1605 0.9078 0.3874
vn -0.1605 0.9078 0.3874
vn -0.3874 0.9078 0.1605
vn -0.3874 0.9078 -0.1605
vn -0.1605 0.9078 -0.3874
vn 0.5124 0.8321 -0.2122
vn 0.2122 0.8321 -0.5124
vn -0.2122 0.8321 -0.5124
vn -0.5124 0.8321 -0.2122
vn -0.5124 0.8321 0.2122
vn -0.2122 0.8321 0.5124
vn -0.0000 0.9111 -0.4121
vn 0.0000 0.9111 0.4121
vn 0.0000 0.9104 0.4138
vn -0.0000 0.9104 -0.4138
usemtl spacebits_texture
s off
f 94/1/1 106/2/1 99/3/1 85/4/1
f 97/5/2 104/6/2 105/7/2 93/8/2
f 87/9/3 95/10/3 92/11/3
f 86/12/4 100/13/4 101/14/4 89/15/4
f 90/16/5 102/17/5 103/18/5 96/19/5
f 85/4/6 99/3/6 100/13/6 86/12/6
f 102/17/7 90/16/7 89/15/7 101/14/7
f 104/6/8 97/5/8 96/19/8 103/18/8
f 106/2/9 94/1/9 93/8/9 105/7/9
f 87/20/10 100/21/10 99/22/10
f 91/23/10 102/24/10 101/25/10
f 98/26/10 104/27/10 103/28/10
f 95/29/10 106/30/10 105/31/10
f 87/20/10 91/23/10 101/25/10 100/21/10
f 95/29/10 87/20/10 99/22/10 106/30/10
f 98/26/10 95/29/10 105/31/10 104/27/10
f 91/23/10 98/26/10 103/28/10 102/24/10
f 98/32/11 91/33/11 88/34/11
f 95/10/12 98/32/12 88/34/12 92/11/12
f 91/33/13 87/9/13 92/35/13 88/36/13
f 116/37/2 128/38/2 121/39/2 107/40/2
f 119/41/5 126/42/5 127/43/5 115/44/5
f 109/45/14 117/46/14 114/47/14
f 108/48/1 122/49/1 123/50/1 111/51/1
f 112/52/4 124/53/4 125/54/4 118/55/4
f 107/40/9 121/39/9 122/49/9 108/48/9
f 124/53/6 112/52/6 111/51/6 123/50/6
f 126/42/7 119/41/7 118/55/7 125/54/7
f 128/38/8 116/37/8 115/44/8 127/43/8
f 109/56/10 122/57/10 121/58/10
f 113/59/10 124/60/10 123/61/10
f 120/62/10 126/63/10 125/64/10
f 117/65/10 128/66/10 127/67/10
f 109/56/10 113/59/10 123/61/10 122/57/10
f 117/65/10 109/56/10 121/58/10 128/66/10
f 120/62/10 117/65/10 127/67/10 126/63/10
f 113/59/10 120/62/10 125/64/10 124/60/10
f 120/68/15 113/69/15 110/70/15
f 117/46/16 120/68/16 110/71/16 114/72/16
f 113/69/17 109/45/17 114/47/17 110/70/17
f 133/73/1 194/74/1 186/75/1 129/76/1
f 129/77/4 186/78/4 188/79/4 131/80/4
f 131/80/18 135/81/18 133/82/18 129/77/18
f 173/83/2 144/84/2 142/85/2 180/86/2
f 176/87/2 174/88/2 179/89/2 183/90/2
f 164/91/4 138/92/4 140/93/4 168/94/4
f 139/95/18 143/96/18 141/97/18 137/98/18
f 145/99/10 147/100/10 155/101/10 153/102/10
f 152/103/2 151/104/2 142/85/2 144/84/2
f 151/105/19 149/106/19 138/107/19 142/108/19
f 149/109/4 150/110/4 140/93/4 138/92/4
f 148/111/2 147/112/2 134/113/2 136/114/2
f 147/115/19 145/116/19 130/117/19 134/118/19
f 145/119/4 146/120/4 132/121/4 130/122/4
f 151/104/2 152/103/2 160/123/2 159/124/2
f 150/110/4 149/109/4 157/125/4 158/126/4
f 147/112/2 148/111/2 156/127/2 155/128/2
f 146/120/4 145/119/4 153/129/4 154/130/4
f 149/131/10 151/132/10 159/133/10 157/134/10
f 161/135/4 165/136/4 167/137/4 171/138/4
f 143/96/2 177/139/2 182/140/2 141/97/2
f 195/141/1 134/118/1 130/117/1 185/142/1
f 183/143/1 179/144/1 165/145/1 161/146/1
f 141/147/1 182/148/1 162/149/1 137/150/1
f 135/81/2 192/151/2 194/152/2 133/82/2
f 191/153/2 136/114/2 134/113/2 195/154/2
f 185/155/4 130/122/4 132/121/4 189/156/4
f 180/157/1 142/108/1 138/107/1 164/158/1
f 183/159/20 161/160/20 163/161/20 184/162/20
f 184/163/21 163/164/21 162/165/21 182/166/21
f 180/167/20 164/168/20 166/169/20 181/170/20
f 181/171/21 166/172/21 165/173/21 179/174/21
f 176/87/2 183/90/2 184/175/2 178/176/2
f 178/176/2 184/175/2 182/140/2 177/139/2
f 173/83/2 180/86/2 181/177/2 175/178/2
f 175/178/2 181/177/2 179/89/2 174/88/2
f 161/135/4 171/138/4 172/179/4 163/180/4
f 163/180/4 172/179/4 170/181/4 162/182/4
f 164/91/4 168/94/4 169/183/4 166/184/4
f 166/184/4 169/183/4 167/137/4 165/136/4
f 195/185/20 185/186/20 187/187/20 196/188/20
f 196/189/21 187/190/21 186/191/21 194/192/21
f 191/153/2 195/154/2 196/193/2 193/194/2
f 193/194/2 196/193/2 194/152/2 192/151/2
f 185/155/4 189/156/4 190/195/4 187/196/4
f 187/196/4 190/195/4 188/79/4 186/78/4
f 137/98/4 162/182/4 170/181/4 139/95/4
s 1
f 81/197/5 71/198/5 74/199/5 82/200/5
f 83/201/2 73/202/2 76/203/2 84/204/2
f 16/205/22 14/206/23 48/207/23 32/208/22
f 79/209/4 69/210/4 72/211/4 80/212/4
f 77/213/1 75/214/1 70/215/1 78/216/1
f 1/217/24 3/218/24 33/219/24 34/220/24
f 69/221/25 70/222/25 17/223/25 18/224/25
f 3/218/26 5/225/26 35/226/26 33/219/26
f 72/227/27 69/221/27 18/224/27 19/228/27
f 5/225/28 7/229/28 36/230/28 35/226/28
f 71/231/29 72/227/29 19/228/29 20/232/29
f 7/229/30 9/233/30 37/234/30 36/230/30
f 74/235/31 71/231/31 20/232/31 21/236/31
f 9/233/32 11/237/32 38/238/32 37/234/32
f 73/239/33 74/235/33 21/236/33 22/240/33
f 11/237/34 13/241/34 39/242/34 38/238/34
f 76/243/35 73/239/35 22/240/35 23/244/35
f 13/241/36 15/245/36 40/246/36 39/242/36
f 75/247/37 76/243/37 23/244/37 24/248/37
f 15/245/38 1/217/38 34/220/38 40/246/38
f 70/222/39 75/247/39 24/248/39 17/223/39
f 15/249/1 77/250/1 78/251/1 1/252/1
f 3/253/4 79/254/4 80/255/4 5/256/4
f 5/256/7 80/255/7 81/257/7 7/258/7
f 13/259/9 84/260/9 77/250/9 15/249/9
f 11/261/2 83/262/2 84/260/2 13/259/2
f 9/263/8 82/264/8 83/262/8 11/261/8
f 7/258/5 81/257/5 82/264/5 9/263/5
f 1/252/6 78/251/6 79/254/6 3/253/6
f 2/265/40 4/266/41 18/267/41 17/268/40
f 4/266/41 6/269/42 19/270/42 18/267/41
f 6/269/42 8/271/43 20/272/43 19/270/42
f 8/271/43 10/273/44 21/274/44 20/272/43
f 10/273/44 12/275/45 22/276/45 21/274/44
f 12/275/45 14/277/46 23/278/46 22/276/45
f 14/277/46 16/279/47 24/280/47 23/278/46
f 16/279/47 2/265/40 17/268/40 24/280/47
f 12/281/48 10/282/49 29/283/49 47/284/48
f 8/285/50 6/286/51 46/287/51 28/288/50
f 4/289/52 2/290/53 25/291/53 45/292/52
f 2/290/53 16/205/22 32/208/22 25/291/53
f 14/206/23 12/281/48 47/284/48 48/207/23
f 10/282/49 8/285/50 28/288/50 29/283/49
f 6/286/51 4/289/52 45/292/52 46/287/51
f 38/293/18 35/294/18 36/295/18 37/296/18
f 39/297/18 33/298/18 35/294/18 38/293/18
f 40/299/18 34/300/18 33/298/18 39/297/18
f 61/301/10 47/302/10 29/303/10
f 62/304/10 61/301/10 29/303/10 28/305/10
f 25/306/10 64/307/10 45/308/10
f 63/309/10 64/307/10 25/306/10 32/310/10
f 42/311/2 41/312/2 60/313/2 59/314/2
f 50/315/2 49/316/2 68/317/2 66/318/2
f 41/319/54 31/320/54 56/321/54 60/322/54
f 48/323/10 63/309/10 32/310/10
f 62/304/10 28/305/10 46/324/10
f 26/325/10 27/326/10 46/324/10 45/308/10
f 30/327/10 31/328/10 48/323/10 47/302/10
f 43/329/10 44/330/10 64/307/10 62/304/10
f 41/331/10 42/332/10 61/301/10 63/309/10
f 42/332/10 30/327/10 47/302/10 61/301/10
f 31/328/10 41/331/10 63/309/10 48/323/10
f 27/326/10 43/329/10 62/304/10 46/324/10
f 44/330/10 26/325/10 45/308/10 64/307/10
f 54/333/10 53/334/10 57/335/10 58/336/10
f 55/337/10 59/338/10 60/339/10 56/340/10
f 31/341/4 30/342/4 55/343/4 56/344/4
f 43/345/55 27/346/55 54/347/55 58/348/55
f 30/349/55 42/350/55 59/351/55 55/352/55
f 44/353/4 43/354/4 58/355/4 57/356/4
f 27/357/2 26/358/2 53/359/2 54/360/2
f 26/361/54 44/362/54 57/363/54 53/364/54
f 50/365/10 51/366/10 61/301/10 62/304/10
f 51/366/10 52/367/10 63/309/10 61/301/10
f 49/368/10 50/365/10 62/304/10 64/307/10
f 52/367/10 49/368/10 64/307/10 63/309/10
f 67/369/10 65/370/10 66/371/10 68/372/10
f 51/373/56 50/374/56 66/375/56 65/376/56
f 49/377/57 52/378/57 67/379/57 68/380/57
f 52/381/4 51/382/4 65/383/4 67/384/4
f 72/211/7 71/198/7 81/197/7 80/212/7
f 76/203/9 75/214/9 77/213/9 84/204/9
f 74/199/8 73/202/8 83/201/8 82/200/8
f 70/215/6 69/210/6 79/209/6 78/216/6
